<?xml version="1.0" standalone="no"?>
<!DOCTYPE svg PUBLIC "-//W3C//DTD SVG 1.1//EN" "http://www.w3.org/Graphics/SVG/1.1/DTD/svg11.dtd">
<svg width="100%" height="100%" version="1.1" viewBox="362.435485839844 8.04683876037598 151.236724853516 344.962524414063" style="background-color:#FFFFFF" xlink:xlink="" xmlns:xlink="http://www.w3.org/1999/xlink" xmlns="http://www.w3.org/2000/svg">
  <defs />
  <g>
    <path d="M415.636706753736 88.4319292410251 C416.071615992548 88.4319292410251 416.487922563107 88.4641325785911 416.88893044431 88.5377685854083 Q421.425053780219 90.4513958959694 416.494194027736 92.2093351082963 Q410.467116444701 94.3666303411039 407.059275018463 96.4725997618134 Q402.085965794532 99.5459931024449 392.39766804983 107.174122526963 C392.154706968913 102.542683793736 394.280297107468 98.0130048379841 397.06889511851 95.1344520523914 C398.775487617917 93.3728081820358 400.248247588213 90.3620106662139 405.824493174688 89.8571052788049 C410.09817113929 89.4701418649961 413.167307321632 88.4319292410251 415.636706753736 88.4319292410251 Z M499.305936359776 18.0468380600283 C498.751891341921 18.0468380600283 498.163030766344 18.1910736800209 497.550342111357 18.5185749791013 C493.465727618317 20.7019295129677 479.577116930596 27.3622234410728 473.768515135525 30.326182296116 C469.589309526688 32.4587081445691 460.539410470435 37.089935057215 453.278322947491 41.4664809614555 Q446.017235424545 45.8430268656961 438.358280092124 50.3190397223058 Q435.289364178799 40.850529852948 425.896740977847 40.850529852948 Q423.419187785702 40.850529852948 420.501643451596 41.5093301864559 C416.807131507226 42.3435748190556 412.676153586746 43.6894641851885 408.971569999849 45.4676643068991 C406.693520939416 46.5611278559067 400.327541630422 49.7649812676997 402.624972753029 56.0092964197375 Q404.482626775446 61.0583170607816 403.942714572415 61.2604044829071 Q400.261201408076 62.7273162309038 397.079494858947 66.6316199108388 C395.507540201076 68.5605810707208 397.83210167159 71.2228627029523 396.482693144732 71.7044344816631 C396.303810104567 71.7682735801411 396.137760390038 71.7955986263171 395.978916858255 71.7955986263171 C395.034221255442 71.7955986263171 394.344414004925 70.8290902487162 392.725758657413 70.8290902487162 C391.053296386222 70.8290902487162 388.389206570565 71.8609234755768 383.427736760045 76.0568562511398 C380.437412999607 78.5857837575332 382.258175299762 84.0878840954746 386.237597050714 86.4255434322904 C388.828579399278 87.9475821750286 386.794235765912 90.0144592763346 384.248258003332 95.1786352407716 C381.384707857048 100.986964384784 378.726205153151 104.483995633021 376.637399153399 108.96000848963 C374.548593153647 113.43602134624 372.000228819675 117.981383973827 372.49871977073 123.871426853656 C372.9252507843 128.911209329491 372.300099877192 132.370595117243 377.118438861377 132.370595117243 C378.23060022866 132.370595117243 379.63277517281 132.186288933875 381.404837063557 131.794569989605 Q388.197026092031 129.878366436628 390.697143377957 129.878366436628 Q391.943299334643 129.878366436628 392.123126826569 130.354430797939 Q392.407654012983 131.334265333001 393.889392731386 131.334265333001 Q395.959361400742 131.334265333001 400.365772998307 129.422048979341 C402.341636397789 128.564598824849 408.088456634383 128.075195406856 413.892658961294 128.075195406856 C414.810176530504 128.075195406856 415.729128003649 128.087424962868 416.634844137545 128.112363454143 L416.634813230708 128.112363454143 Q419.378641781669 138.5207196623 423.21928738224 144.232449016996 C429.943544009364 154.232625539387 433.650505996114 160.008589565252 433.822922832707 166.991471447267 C433.910954180209 170.556741021108 433.72930705676 173.695019682614 436.903831104963 174.088517470373 L436.903831061272 174.088517470373 C437.681784377167 177.921797993665 437.335017001555 182.406468202625 432.573816922304 190.419219555512 C426.337197713892 200.91499334528 423.981813155789 216.821864955448 422.933815944593 225.089398510437 C421.885818733396 233.356932065426 417.099078510715 244.961330350455 421.829433106403 252.974571688886 C425.008902427555 258.36060660089 427.055081964183 261.676853895059 429.084333109006 266.359741152343 C431.549864872899 272.049429838248 434.294896798109 279.581349964529 435.295576591119 283.902947933885 C438.012761938986 295.637553512748 433.289721714463 304.390443966156 418.692732707684 308.40706510225 C408.793572354042 311.130995132447 410.528159969952 316.337023680851 415.308561570074 317.833954648445 C417.484803025326 318.515421081569 419.970582087251 319.029817406263 426.203937700582 319.029817406263 C426.688657139767 319.029817406263 427.19603802289 319.026706872479 427.727697001377 319.020322483484 C432.224010611822 318.966328821577 441.032716545327 317.739456233093 446.504154231272 317.739456233093 C449.493836247692 317.739456233093 451.487107983715 318.105764353754 451.235974598164 319.229885222403 C450.22489644743 323.755663611405 450.206343107441 325.415016668509 433.274254550577 330.59076426231 C422.531243646787 333.874654058228 426.962364916668 340.767813324015 436.734282332297 342.636555313412 C438.128843348031 342.903245525376 439.862124824536 343.009376551314 441.83770643306 343.009376551314 C449.542192588508 343.009376551314 460.931793868781 341.395241859603 470.28758105146 341.395241859603 C471.566266557999 341.395241859603 472.806961296808 341.425393197541 473.995064861409 341.493937633961 C476.006101728454 341.609958991675 477.717986846999 341.681231920726 479.172209998021 341.681231920726 C486.475120514769 341.681231920726 487.280024123977 339.883791694112 486.841475521847 332.929663860337 C486.577233134831 328.739534580517 485.369021925166 321.627078750324 484.437468848548 316.852869232654 C483.50591577193 312.078659714985 481.094890451804 310.612239838698 480.866609337097 301.764664076777 C480.507620971827 287.85121896571 471.156122552605 266.306596675026 468.100193920535 257.471972784168 C465.266519814874 249.279881944721 467.181487024856 243.818186683648 468.639975206479 240.515049289114 C470.561674283245 236.162846671715 472.001974708693 232.510656307187 475.110873305403 226.32971032434 C478.964386373996 218.668361656886 485.716741606327 209.687752454543 492.819833815543 197.810450727658 C499.922926024758 185.933149000773 495.254355190895 170.951639082634 490.945922211535 165.129432353769 Q487.552107509011 160.543196269279 484.962511278322 152.516416315192 L484.962511229825 152.516416315192 C486.556278922092 150.968875492536 486.250446928609 149.18834183145 484.599681209332 145.61178370974 C482.119493591933 140.238195524099 484.477229258144 129.186309588737 480.572229560983 114.082065477077 C475.254841040906 93.5148079937615 475.560370653216 75.8577288304897 466.766254723788 71.9387484627069 L466.766244358609 71.9387484627069 C464.340369643382 69.641160247952 462.101408763297 69.236513592241 458.383957004184 69.236513592241 C457.13940121899 69.236513592241 455.729132386883 69.2818674264728 454.090658156044 69.3167285803205 Q444.740764633348 69.5156624850587 437.960412282648 71.1076327674485 Q443.055425218039 66.7945936466318 441.441755615566 61.5588053400145 Q439.866160282542 56.4636693126286 440.844953901352 56.0881229597138 Q460.59233814534 48.5113897343235 479.736532277672 38.3830054380133 Q501.22809813569 27.0127259352653 502.578847129349 25.6684805515598 C505.096343753093 24.3109148777252 502.957150700833 18.0468380600283 499.305936359776 18.0468380600283 Z " fill-rule="evenodd" opacity="1" stroke="#000000" stroke-opacity="1" stroke-width="0.5" stroke-linecap="butt" stroke-linejoin="miter" stroke-dasharray="none" fill="#000000" fill-opacity="1" />
  </g>
</svg>