<?xml version="1.0" encoding="utf-8"?>
<!-- Generator: Adobe Illustrator 15.1.0, SVG Export Plug-In . SVG Version: 6.00 Build 0)  -->
<!DOCTYPE svg PUBLIC "-//W3C//DTD SVG 1.1//EN" "http://www.w3.org/Graphics/SVG/1.1/DTD/svg11.dtd">
<svg version="1.1" id="Layer_1" xlink:xlink="" xmlns="http://www.w3.org/2000/svg" xmlns:xlink="http://www.w3.org/1999/xlink"
	 x="0px" y="0px" width="187px" height="388px" viewBox="119.5 -3.5 187 388" enable-background="new 119.5 -3.5 187 388"
	 xml:space="preserve">
<path fill="none" d="z"/>
<g>
	<path stroke="#000000" stroke-width="0.5" d="M216.641,50.378L216.641,50.378L216.641,50.378L216.641,50.378z M239.902,95.794
		c1.588,0,6.537,2.508,5.939,4.039c-0.367,0.935,2.332,1.402,8.094,1.402c0.463,0,0.945-0.004,1.449-0.01l0,0l-12.955,13.188
		l-3.008-18.335C239.426,95.882,239.605,95.794,239.902,95.794z M131.689,5.425c-4.311,0-9.413,10.857-5.088,13.453
		c4.61,2.766,27.643,13.937,44.527,21.604c9.851,4.474,21.408,9.271,34.674,14.392l0,0c-12.626,3.722-17.579,9.395-21.673,19.4
		c-4.32,10.561-8.34,19.832-14.595,34.869c-4.885,11.745-15.166,22.573-17.727,32.014c-0.263,0.971-0.353,1.964-0.287,2.971l0,0
		c-9.188,9.542-15.305,19.114-18.353,28.718c-5.053,15.924,15.567,38.724,31.094,55.975c15.526,17.252,18.872,30.49,18.81,34.953
		c-0.161,11.456-11.126,52.118-14.922,62.986c-2.608,7.471-5.476,13.745-0.573,16.737l0,0c-2.956,5.937-5.671,11.663-7.715,16.523
		c-5.009,11.915-8.408,20.185,11.509,20.185c5.893,0,14.664,0.64,23.307,0.64c9.439,0,18.729-0.763,23.949-3.953
		c8.385-5.125-1.611-9.015-17.732-13.52c-6.359-1.776-5.198-10.225-2.184-18.507l0,0c24.203-0.639,37.199-1.824,11.375-12.229
		c-1.789-0.721-2.926-1.964-3.564-3.691l0,0c0.225-0.348,0.424-0.648,0.6-0.896c3.561-5.068,13.082-20.708,22.738-36.711
		c13.109-21.724,8.123-31.426,4.932-43.286c-3.18-11.82-6.486-23.035-9.225-28.925c-2.74-5.891-2.557-5.868-11.322-23.266
		c-3.043-6.037-4.242-12.087-3.598-18.149l0,0c1.945-1.329,3.939-3.385,6-6.346c1.115-2.119,3.793-6.573,8.033-13.363l6.203-10.409
		c3.725,0.996,5.566,2.496,7.74,2.496c2.934,0,6.469-2.734,16.057-13.134c6.703-7.271,11.465-17.601,15.994-27.387
		c3.014-6.515,3.615-7.2,8.107-7.2c1.199,0,2.674,0.049,4.547,0.049c0.564,0,1.166-0.005,1.807-0.017
		c10.432-0.188,16.779-7.667,16.906-14.329c0.104-5.499-4.885-7.787-11.498-10.689c-0.102-0.044-5.23-2.471-7.254-3.017
		c-1.121-0.303-4.031-0.406-5.047-0.406c-8.066,0-8.033,0.226-13.148-1.765c-5.76-2.239-17.23-5.213-8.721-7.852
		c3.254-1.01,6.842-5.619,8.721-10.389c1.297-3.295,14.488-1.072,13.312-4.328c-1.904-5.273-7.275-3.223-6.113-12.793
		c0.705-5.797-1.119-21.28-20.16-25.92c-3.984-0.971-7.59-1.41-10.836-1.41c-12.27,0-19.408,6.266-22.445,13.73
		c-3.287,8.08-3.965,17.771-2.211,27.145c-13.01-7.615-25.019-14.584-36.027-20.906c-15.143-7.914-41.8-21.608-48.084-23.9
		C132.255,5.472,131.974,5.425,131.689,5.425z"/>
</g>
<path fill="none" d="z"/>
</svg>
