<?xml version="1.0" standalone="no"?>
<!DOCTYPE svg PUBLIC "-//W3C//DTD SVG 1.1//EN" "http://www.w3.org/Graphics/SVG/1.1/DTD/svg11.dtd">
<svg width="100%" height="100%" version="1.1" viewBox="189.55029296875 -3.73144245147705 151.571807861328 402.642486572266" style="background-color:#FFFFFF" xlink:xlink="" xmlns:xlink="http://www.w3.org/1999/xlink" xmlns="http://www.w3.org/2000/svg">
  <defs />
  <g>
    <path d="M307.124034507427 118.809715485849 Q307.431224484733 119.036366519783 308.570853516022 119.259402475007 C312.728860565248 120.073162960735 317.464930397265 119.910471315628 311.90576255934 119.97223984716 C306.346594721414 120.034008378693 309.805632487235 126.766778315735 311.349845775547 131.214112586075 Q312.894059063859 135.661446856416 309.805632487235 142.641290919588 L303.50524227092 156.292136388271 Q301.899260451075 154.562617505361 292.448675126602 154.315543379231 C282.99808980213 154.068469253101 278.921366720984 148.509301415176 273.053356225397 147.521004910656 C267.185345729809 146.532708406135 267.803031045134 143.44428182951 269.470781396512 140.72646644208 C270.04771861697 139.786272453185 270.94251209547 139.533535022385 271.958259639064 139.533535022385 C273.139332236955 139.533535022385 274.483936588723 139.875239910909 275.682528265941 139.875239910909 C276.432893529928 139.875239910909 277.126032781661 139.741317234691 277.685996090335 139.305790216833 C279.909663225504 137.576271333923 282.45833668004 134.775102269443 284.171691901247 131.214112586075 Q285.821178062953 127.86937947532 290.85274180119 129.34615902713 Q295.485737107164 130.705957508762 293.655204516152 128.336529809181 Q289.489507919003 122.944483279227 297.266620586138 121.022304883213 Q302.215392232682 119.351556076096 305.95093801397 118.692405836503 Z M252.239741521615 6.26855748135218 C248.184592564905 6.26855748135218 243.543406154524 11.1903967056361 245.832982689613 14.8267829672474 Q248.886105644351 19.6758606012429 257.271943528712 33.0413335092654 L263.629293703983 42.9305448930208 C268.92391591473 50.8980236338985 277.898143557023 62.0438976107415 290.310682597197 79.9578372630248 C294.670826902642 86.2504548902632 300.092972947686 94.9181230367232 305.968047750732 104.29163635542 L305.968047720134 104.29163635542 Q304.163353180408 104.980045116574 302.147873404462 105.931010926351 L290.162886931908 106.911600728651 Q286.763615342732 102.239673685275 283.304630934406 99.4066007413135 C280.66520113466 97.2447820481882 278.027902486141 94.5866777033112 271.976703932238 94.5866777033112 C270.773731445513 94.5866777033112 269.43583801634 94.6917288041855 267.936184746445 94.9266142560969 Q258.89296768079 96.3430217483078 255.297471739023 111.051868782806 Q249.740796192658 113.448866077317 238.082672987538 120.421949115894 C226.424549782417 127.39503215447 220.323102123662 139.488973049503 218.797740208973 148.423235692678 Q217.490481634774 156.080035912988 214.502712065091 168.938417785985 L214.502710463757 168.938417785985 C214.240404787995 169.697381261631 214.039595304785 170.508444848342 213.905344427201 171.374131541728 L213.611021196284 172.734181406493 L213.611021174922 172.734181406493 Q213.535457544783 173.052565483759 213.458973507562 173.373798440087 Q213.457428474634 173.410562981405 213.456736379619 173.447122319846 L213.456736358273 173.447122319846 L213.41632524192 173.63385964656 Q210.176300473189 195.420035658975 205.547142461313 208.664571081843 C200.917984449437 221.909106504713 193.412438934994 235.975940101285 208.586260840543 249.870042087089 C215.930751607236 256.595117969843 224.415202689434 268.875339647515 235.221100849875 281.548689008486 C244.281491566436 292.174876225228 241.808880221012 298.547389145778 237.822660821896 306.777003389114 C233.83644142278 315.006617632451 232.241967188532 317.141094022784 230.38227168283 324.891261561507 C227.824345389222 335.551263301777 229.073238055348 337.443715710747 224.972696832201 346.937739185699 Q220.460983710252 357.383753007053 218.060167133996 367.369038998781 Q214.565002730943 381.905849722998 218.534502439078 385.086926423357 Q229.258408645864 385.22809627708 246.789541800526 388.581359610543 C248.461083185477 388.901083292241 250.110320122147 388.911030177262 251.674515742917 388.911030177262 C266.762894190447 388.911030177262 275.358728865746 379.240916479069 262.254328106799 375.957198122157 C252.038143296133 373.397212799859 246.357507671983 366.675612227064 242.328873753426 363.868861323165 C237.30862414987 360.371251364696 237.490087393559 359.44270340252 241.937467943565 353.454346675535 Q248.037092515962 345.201762153674 249.510175115214 345.201762153674 Q249.587891974162 345.201762153674 249.652731296691 345.2247324322 Q263.155001389249 350.008109134063 276.141802142429 350.625416779388 C276.902639471337 350.661582014299 277.62774770661 350.679137161033 278.315129233036 350.679137161033 C288.179922311556 350.679137161033 290.274569587607 347.063501080644 278.694583550904 342.950391286185 C266.837705198468 338.738931762097 263.600298599679 326.16078116862 268.306624330234 313.810044940348 C273.108919038751 301.20745884006 277.147166225437 288.006630877014 278.762828011235 283.997396075222 C281.872473431666 276.28086855045 275.764537674805 265.667673172686 272.533655527539 258.72718399937 C269.42874916896 252.057312433764 266.874756225463 245.430643444568 261.611339584824 237.864482023649 Q256.36468429006 230.322415037425 255.824941979194 227.566966297006 Q256.564111991022 206.465523216 260.807506835241 196.307093134382 C263.579628360696 189.670802209806 266.056092263268 183.794444064534 268.013732932646 178.796489583743 L268.013732905845 178.796489583743 Q277.661538484534 178.177131512317 284.707238033126 178.177131512317 Q291.893895704822 178.177131512317 296.37328901314 178.821519563974 Q297.458721750277 178.953087168476 298.35052669211 178.953087168476 Q303.366929482271 178.953087168476 302.256827830326 174.790205944995 L302.256827860552 174.790205944995 Q304.340581172046 175.5774016347 306.227535561115 175.5774016347 Q308.780473872796 175.5774016347 310.973181625161 174.136479397431 Q314.786586411882 171.630527680443 315.658221791704 168.143986161153 L320.234307535771 143.847149948613 Q325.790983082136 140.142699584369 329.05961575647 136.438249220124 C332.328248430802 132.733798855881 331.214143438184 129.370052156928 329.144009411107 123.268604498174 Q327.410461399035 118.159199831015 323.325593135747 118.159199831015 Q322.532474329121 118.159199831015 321.650715027982 118.351815088816 Q323.720849055059 114.974227992005 320.670125225682 106.802646306173 Q319.058827428476 102.486670063656 313.9825909577 102.486670063656 Q312.847534840696 102.486670063656 311.539239380154 102.702459421398 Q300.216923106212 84.0093142593107 294.702440728492 74.768998412807 C288.032452760105 63.5924651865393 278.682762489915 43.3298352999694 274.558014389037 36.681333153201 C269.629858714235 28.7378532649266 259.593962470705 13.4389802069206 255.822457644264 8.1409139031106 C254.87925324352 6.8159362925425 253.592085249632 6.26855748135218 252.239741521615 6.26855748135218 Z " fill-rule="evenodd" opacity="1" stroke="#000000" stroke-opacity="1" stroke-width="0.5" stroke-linecap="butt" stroke-linejoin="miter" stroke-dasharray="none" fill="#000000" fill-opacity="1" />
  </g>
</svg>