<?xml version="1.0" standalone="no"?>
<!DOCTYPE svg PUBLIC "-//W3C//DTD SVG 1.1//EN" "http://www.w3.org/Graphics/SVG/1.1/DTD/svg11.dtd">
<svg width="100%" height="100%" version="1.1" viewBox="124.995376586914 205.172775268555 241.789566040039 414.415466308594" style="background-color:#FFFFFF" xlink:xlink="" xmlns:xlink="http://www.w3.org/1999/xlink" xmlns="http://www.w3.org/2000/svg">
  <defs />
  <g>
    <path d="M308.038811032852 215.540119283575 C297.023616213903 217.306297978977 294.742541988856 232.162075471811 294.597490099811 238.181728867165 Q294.578752830452 238.959325545571 294.470987087041 239.941231158016 L294.470987086917 239.941231158016 Q293.936681310657 239.561158854748 293.505488759393 239.561158854748 Q292.286784223969 239.561158854748 291.891779041953 242.597290354477 C291.55433366986 245.190999425385 292.014783760655 247.222573681228 292.908824654333 248.153877420499 L292.908824625043 248.153877420499 Q292.572759824544 249.934612585165 290.455009387688 257.117505211069 L289.82403099796 258.25326631258 Q289.141835695164 258.933445135732 288.388555161327 259.089312678971 Q286.466192756463 259.487084679973 285.472119730898 261.679186492238 C282.479751486653 268.277872587195 276.536690073768 267.467010060911 268.630968323759 271.451349227699 C266.715821127578 272.416548386638 265.04633218789 273.357266906272 263.531181748586 274.360058419576 L263.531181748575 274.360058419576 Q229.274890694685 258.595165826666 207.874000645894 247.943447210193 C177.96861694268 233.058845139995 163.220651736399 227.172556281723 144.326529499419 219.4785580512 C143.704287552332 219.225170866561 143.096835642495 219.108546551944 142.509606022691 219.108546551944 C136.244408460544 219.108546551944 132.281097732517 232.383797471524 137.216885564886 234.476984981586 C155.818830653871 242.365767977439 169.538617592284 247.402438556017 202.19835222884 258.770191495813 Q225.190855197778 266.773106893841 257.211786478683 279.844535561222 L257.211786452963 279.844535561222 C255.703126239516 281.536042262394 254.211310704727 283.512295698787 252.578003207892 285.923368670305 C247.461140637647 293.476832464476 245.870965630532 296.356927748054 243.635525697693 304.45133592526 C241.167721326967 313.387123277322 239.395355264508 322.591826155252 238.653701041117 332.792238069528 C237.775432932906 344.871582044603 238.112725218266 352.001390054097 240.21195929292 364.084786191135 L239.758942662368 367.710916302986 C231.307021705242 387.672066293882 229.525043585965 402.726075126385 243.085815474807 425.78700518414 C255.020194609714 446.082153924106 262.176488683796 460.946225322929 271.253509693311 481.29909720362 L271.253509065125 481.29909720362 Q271.764851848808 492.661005284582 274.311901593556 500.985509328397 C279.208745775671 516.989829338235 280.403098015212 530.605444868992 277.178346968453 540.996309352992 C273.953595921695 551.387173836991 273.920495927169 558.395859440228 273.214851025185 562.523022018362 C272.458882889213 566.944514177201 277.457006076044 568.663194153003 285.799628281893 569.067204494081 L285.799628253313 569.067204494081 C285.432487470737 574.827986215191 284.970095295639 580.942399722217 284.455944546776 587.479048113779 C283.369830021135 601.287350022881 280.485073666403 609.58825205838 290.265531176008 609.58825205838 C290.346454868918 609.58825205838 290.428245614684 609.587683783662 290.51091160613 609.586545651895 C295.061504975694 609.523893831144 303.834572697388 608.405646693568 312.168939868924 608.405646693568 C312.48047346465 608.405646693568 312.791394099585 608.407209129837 313.101458333596 608.41044753609 C316.633544440543 608.44733773004 319.988828520192 608.679785933251 323.349305654979 608.679785933251 C329.648040638668 608.679785933251 335.965019943837 607.863145317139 343.498685036401 603.411434126079 C352.157468363506 598.29488034188 351.901818159511 592.717235168142 344.307685046685 592.717235168142 C344.123125178677 592.717235168142 343.934230956271 592.72052951265 343.741025000887 592.727204882543 C341.986188837056 592.787835417823 340.239722159473 592.837759203176 338.511892332824 592.837759203176 C328.512237931476 592.837759203176 319.136807698287 591.165607964233 312.375867338522 580.219323572233 C310.363896020649 576.961846200438 309.318457006592 572.587664201966 308.891836848417 567.963874221348 L308.891836817528 567.963874221348 C317.035174061702 566.84996773604 323.083532146922 565.126787923551 324.010901354798 563.622640305897 C326.915706336941 558.911188322666 317.279704960522 558.620334399505 309.015354474719 555.238978337731 L309.015354443817 555.238978337731 C309.431899290417 550.904455843026 310.145288738907 547.114774490111 310.811215480992 544.728536997638 C312.76016098458 537.744815609781 317.788170826377 520.3518749747 321.271269276609 500.161711076748 C326.08667338747 472.248690637517 323.719779841454 469.310477959703 320.272076536106 456.374107915132 C318.431304000228 449.467215824077 310.082306554323 428.684649587872 306.346827672445 420.076806947023 C302.611348790568 411.468964306175 300.795137496046 404.148937800147 301.932022373139 392.942501154514 Q302.783625716056 384.548125345751 302.618755174188 373.240208612782 L302.618755143926 373.240208612782 C304.235359455318 370.456798114797 305.340746160762 365.974784716042 306.555708425942 358.85126185673 C307.103728547462 355.638130078982 308.947833660842 345.524004095007 311.981392316284 335.955888029984 Q314.323201823634 321.592238728358 316.948972591233 321.592238728358 Q317.16626681167 321.592238728358 317.385505683805 321.690605297722 Q321.340923277097 323.811144056608 329.236325029838 325.816446107082 C336.9205681334 327.768117337309 342.3751618918 328.773686278024 348.731183340979 328.773686278024 C349.163365294085 328.773686278024 349.59971491833 328.769037119036 350.041216536577 328.75972010641 C356.681866639295 328.619582407497 357.575934680754 323.235549588083 356.27787355301 314.828486251521 C355.363408281866 308.905831848526 345.505465979172 304.785038588695 340.904797575222 299.3246754019 C336.072758105221 293.58970645337 330.226558991117 282.917735219715 324.345554808731 276.550162645149 Q320.572199498687 272.464616530716 316.296395932509 269.492498664726 L316.296393839927 269.492498664726 C317.672891109665 267.251580756477 319.725302537533 264.412476510673 322.961981674333 261.010419607759 C326.011032247384 257.805578129514 327.388530155565 252.680511378956 328.628604181331 249.397962487222 C330.617180841668 244.134083092212 330.506348394056 241.989217483932 332.715635842008 241.989217483932 C333.342371576498 241.989217483932 334.201956987818 242.053868722427 335.43063247231 242.103556100682 Q335.6796386488 242.113625858103 335.903860851552 242.113625858103 Q341.12971821178 242.113625858103 332.892979556504 236.643757403041 Q334.662140268434 229.961213197395 331.662602385204 224.339985690047 C329.037018253206 219.419559170959 324.152381769124 217.544448286447 318.337810486996 215.929289596968 C315.316397391063 215.09000818143 312.157428901266 214.932366577038 308.038811032852 215.540119283575 Z " opacity="1" stroke="#000000" stroke-opacity="1" stroke-width="0.5" stroke-linecap="butt" stroke-linejoin="miter" stroke-dasharray="none" fill="#000000" fill-opacity="1" />
  </g>
</svg>