<?xml version="1.0" encoding="iso-8859-1"?>
<!-- Generator: Adobe Illustrator 14.0.0, SVG Export Plug-In . SVG Version: 6.00 Build 43363)  -->
<!DOCTYPE svg PUBLIC "-//W3C//DTD SVG 1.1//EN" "http://www.w3.org/Graphics/SVG/1.1/DTD/svg11.dtd">
<svg version="1.1" id="Layer_1" xmlns="http://www.w3.org/2000/svg" xmlns:xlink="http://www.w3.org/1999/xlink" x="0px" y="0px"
	 width="250px" height="250px" viewBox="0 0 250 250" style="enable-background:new 0 0 250 250;" xml:space="preserve">
<g>
	<rect y="0.02" style="fill:#000104;" width="250" height="250"/>
	<path d="M197.319,225.255c0,0.785-0.68,1.357-1.717,2.396c-1.274,1.281-10.682,8.682-15.114,11.917
		c-4.433,3.228-5.653-1.983-6.554-3.388c-1.915-2.976-15.151-23.392-15.151-23.392s-18.334,23.567-19.745,25.383
		c-1.403,1.823-3.929,2.121-6.649-0.595c-2.678-2.671-12.623-12.039-12.623-12.039s-0.015-17.586-0.023-21.561
		c0-3.838,2.354-5.196,5.139-2.625l9.487,8.445l13.146-16.105l-2.877-4.783l-11.153,8.529L95.409,174.29
		c-0.652-0.054-1.06-1.671-0.301-2.426c0.854-0.862,4.032-3.692,4.032-3.692l-0.019-14.222c-1.106-0.702-6.756-3.968-8.373-3.968
		c-0.679-0.687-12.093-2.762-21.771-1.342c-10.083,1.465-18.013,6.286-22.896,9.392c-7.656,4.745-8.732,0.663-6.76-5.623
		c1.507-4.822,6.52-11.093,12.116-15.991c6.035-5.295,14.557-9.468,23.754-11.65c3.582-0.847,14.923-2.067,21.583,0.344l14.179-10.3
		c0-1.725-7.48-5.158-8.983-5.768c-1.446-0.595-14.896-6.607-24.612-11.101c-9.743-4.517-17.838-13.367-20.867-17.967
		c-2.861-4.341-6.062-13.977-4.764-27.527c0.771-8.057,6.466-20.203,11.837-25.925c9.67-10.429,19.378-18.677,37.933-18.692
		c15.129-0.015,33.284,9.544,37.327,10.346c4.028,0.809,4.532,0.809,8.362-3.037l14.633,9.766l-21.652,27.862l-12.26-8.362
		l0.095-1.389c-0.008-8.186-8.403-11.642-12.867-13.138c-6.256-2.09-9.888-2.319-14.725-2.304c-7.366,0-11.509,5.783-11.62,8.903
		c-0.172,4.738,2.457,8.766,10.833,13.008l11.2,5.524c0,0,31.647,16.022,36.53,19.668c4.135,3.083,7.431,5.028,11.673,11.673
		c3.685,3.685,5.096,18.326,5.096,18.326s-0.198,7.461-3.013,15.938l3.128-0.007c8.064-0.008,4.035,5.447,3.234,6.149
		c-2.144,1.877-3.28,3.342-3.28,3.342l0.038,30.952c0,0,4.791,1.404,6.149,3.273c0,0,14.907-18.555,15.762-19.913
		c0.87-1.381,3.021-2.228,4.639-0.411c1.618,1.815,10.704,11.063,10.704,11.063l0.016,17.212c0,0,0.313,6.386-4.372,3.28
		l-5.409-4.242l-18.959,23.941l9.415,14.984l11.489-8.698c2.381-2.304,3.632-0.198,3.632,1.008"/>
	<path style="fill:none;stroke:#000000;stroke-width:2.1521;" d="M197.319,225.255c0,0.785-0.68,1.357-1.717,2.396
		c-1.274,1.281-10.682,8.682-15.114,11.917c-4.433,3.228-5.653-1.983-6.554-3.388c-1.915-2.976-15.151-23.392-15.151-23.392
		s-18.334,23.567-19.745,25.383c-1.403,1.823-3.929,2.121-6.649-0.595c-2.678-2.671-12.623-12.039-12.623-12.039
		s-0.015-17.586-0.023-21.561c0-3.838,2.354-5.196,5.139-2.625l9.487,8.445l13.146-16.105l-2.877-4.783l-11.153,8.529L95.409,174.29
		c-0.652-0.054-1.06-1.671-0.301-2.426c0.854-0.862,4.032-3.692,4.032-3.692l-0.019-14.222c-1.106-0.702-6.756-3.968-8.373-3.968
		c-0.679-0.687-12.093-2.762-21.771-1.342c-10.083,1.465-18.013,6.286-22.896,9.392c-7.656,4.745-8.732,0.663-6.76-5.623
		c1.507-4.822,6.52-11.093,12.116-15.991c6.035-5.295,14.557-9.468,23.754-11.65c3.582-0.847,14.923-2.067,21.583,0.344l14.179-10.3
		c0-1.725-7.48-5.158-8.983-5.768c-1.446-0.595-14.896-6.607-24.612-11.101c-9.743-4.517-17.838-13.367-20.867-17.967
		c-2.861-4.341-6.062-13.977-4.764-27.527c0.771-8.057,6.466-20.203,11.837-25.925c9.67-10.429,19.378-18.677,37.933-18.692
		c15.129-0.015,33.284,9.544,37.327,10.346c4.028,0.809,4.532,0.809,8.362-3.037l14.633,9.766l-21.652,27.862l-12.26-8.362
		l0.095-1.389c-0.008-8.186-8.403-11.642-12.867-13.138c-6.256-2.09-9.888-2.319-14.725-2.304c-7.366,0-11.509,5.783-11.62,8.903
		c-0.172,4.738,2.457,8.766,10.833,13.008l11.2,5.524c0,0,31.647,16.022,36.53,19.668c4.135,3.083,7.431,5.028,11.673,11.673
		c3.685,3.685,5.096,18.326,5.096,18.326s-0.198,7.461-3.013,15.938l3.128-0.007c8.064-0.008,4.035,5.447,3.234,6.149
		c-2.144,1.877-3.28,3.342-3.28,3.342l0.038,30.952c0,0,4.791,1.404,6.149,3.273c0,0,14.907-18.555,15.762-19.913
		c0.87-1.381,3.021-2.228,4.639-0.411c1.618,1.815,10.704,11.063,10.704,11.063l0.016,17.212c0,0,0.313,6.386-4.372,3.28
		l-5.409-4.242l-18.959,23.941l9.415,14.984l11.489-8.698c2.381-2.304,3.632-0.198,3.632,1.008L197.319,225.255z"/>
	<path style="fill:#FFFFFF;" d="M72.716,68.699c4.921,4.089,15.209,10.3,18.368,11.849c7.366,3.624,15.942,8.751,19.775,11.482
		c5.653,4.028,6.26,10.482,6.466,11.284c0.202,0.801,0.015,10.49-1.598,13.313c-0.004-2.22-4.139-7.049-7.271-8.194
		c-0.335-0.122-8.88-4.524-10.09-5.127c-1.213-0.61-14.526-6.21-15.938-7.217c-0.354-0.259-5.535-2.243-10.669-5.63
		c-4.208-2.77-8.194-6.661-10.731-10.086c-5.752-7.751-6.668-16.937-6.676-22.171c0-3.128,0.725-7.751,1.809-11.307
		C58.373,39.639,61.592,36,61.592,36c-1.309,1.32-1.194,14.427,1.335,19.974C64.236,60.811,72.716,68.699,72.716,68.699"/>
	<path style="fill:#FFFFFF;" d="M127.209,105.717c4.039,4.036,16.956,11.452,19.375,12.665c2.418,1.206,9.27,5.371,11.101,5.928
		c2.197,0.664,6.858-0.069,6.858-0.069l-3.822,4.242l0.03,35.698c6.653,0,8.973,4.021,8.072,4.021
		c-1.007,0.015-3.021,1.221-3.83,1.617c-0.809,0.412-12.299,9.095-12.299,9.095l-19.821,14.541c0,0-31.41-18.936-32.218-19.531
		c-0.302-0.305-1.515-0.755-1.515-0.755c0.958-0.656,1.19-0.68,1.465-0.916c0.706-0.603,1.663-0.999,1.66-4.173
		c0-0.809-0.039-39.536-0.039-39.536c-0.003-1.716-0.606-2.822-0.606-2.822l22.869-17.167
		C125.549,107.495,127.209,105.717,127.209,105.717"/>
	<path d="M120.277,129.124l7.152-5.249c6.664,5.539,17.452,9.369,17.56,10.88c0.13,1.907,0.03,30.456,0.03,30.456l-12.161,9.888
		l-12.543-7.645"/>
	<path style="fill:none;stroke:#000000;stroke-width:0.267;" d="M120.277,129.124l7.152-5.249c6.664,5.539,17.452,9.369,17.56,10.88
		c0.13,1.907,0.03,30.456,0.03,30.456l-12.161,9.888l-12.543-7.645L120.277,129.124z"/>
	<path style="fill:#FFFFFF;" d="M129.463,35.603c1.931,1.93,2.323,7.599,2.323,7.599l7.87,5.027l17.12-22.407l-9.285-6.241
		c-2.616,2.823-7.659,3.037-9.674,2.03c-2.015-1.007-19.337-7.294-21.79-8.072c-4.643-1.48-14.725-2.579-20.172-1.771
		c-5.443,0.809-14.385,2.472-21.37,9.903c-8.156,8.682-8.255,15.64-8.251,19.371c0.004,5.852,1.53,13.58,8.087,20.134
		c9.453,9.43,23.815,15.335,27.046,17.12c5.737,3.159,23.819,12.604,26.432,14.115c11.101,6.447,15.343,13.298,14.138,21.973
		c-1.114,8.049-8.255,14.122-8.255,14.122s-9.163,7.874-14.206,7.882c-3.636,0-13.386-6.409-22.896-8.011
		c-9.083-1.534-14.603-1.435-21.782,0.335c-7.969,1.983-16.338,5.203-24.193,13.085c-8.869,8.888-8.759,14.839-8.759,14.839
		l8.865-5.249c7.416-4.166,17.186-6.676,24.098-6.684c17.952-0.015,26.527,5.623,27.943,8.042c1.468,2.51,16.334-4.15,16.334-4.15
		c4.169-0.008,18.7-6.623,25.902-13.84c3.677-3.686,10.582-8.515,13.694-18.372c4.524-14.328,1.32-28.137-9.315-36.033
		c-7.667-5.699-38.944-21.568-38.944-21.568s-18.943-9.27-20.988-11.307c-1.465-1.465-4.44-3.731-4.444-10.895
		c-0.011-4.265,4.746-8.972,6.794-9.941c3.277-1.564,4.349-2.297,10.986-2.403c3.757-0.054,7.24,0.854,7.721,0.9
		C114.624,25.563,124.413,28.782,129.463,35.603"/>
	<polyline style="fill:#FFFFFF;" points="125.614,153.394 137.329,145.047 181.168,214.787 193.466,205.494 193.489,224.857 
		178.177,237.172 132.11,164.006 125.629,168.316 	"/>
	<polyline style="fill:#FFFFFF;" points="188.568,147.412 198.654,156.476 198.677,172.611 191.208,166.569 136.017,236.004 
		122.891,223.919 122.875,204.35 134.384,214.833 	"/>
	<path style="fill:#FFFFFF;" d="M211.54,242.207h-1.313v-5.111h-0.022l-1.861,5.111h-1.267l-1.809-5.111h-0.03v5.111h-1.313v-6.424
		h2.273l1.504,4.196h0.03l1.556-4.196h2.251 M202.759,236.928h-1.938v5.279h-1.313v-5.279h-1.938v-1.145h5.188V236.928z"/>
</g>
</svg>
