<?xml version="1.0" encoding="iso-8859-1"?>
<!-- Generator: Adobe Illustrator 14.0.0, SVG Export Plug-In . SVG Version: 6.00 Build 43363)  -->
<!DOCTYPE svg PUBLIC "-//W3C//DTD SVG 1.1//EN" "http://www.w3.org/Graphics/SVG/1.1/DTD/svg11.dtd">
<svg version="1.1" id="Layer_1" xmlns="http://www.w3.org/2000/svg" xmlns:xlink="http://www.w3.org/1999/xlink" x="0px" y="0px"
	 width="250px" height="250px" viewBox="0 0 250 250" style="enable-background:new 0 0 250 250;" xml:space="preserve">
<g>
	<rect y="0.02" style="fill-rule:evenodd;clip-rule:evenodd;fill:#002B5C;" width="250" height="250"/>
	<path style="fill:#999596;" d="M162.468,27.035c0.298-0.282,4.242-4.234,8.713-7.225c5.249-3.502,22.751-11.978,22.751-11.978
		l19.661,25.925c0,0,2.525,3.174,1.679,6.912c-1.16,5.325-9.385,39.398-9.385,39.398s-1.983,12.42-6.401,19.943
		c-8.308,14.168-15.861,26.642-15.861,26.642l0.252,3.144c0,0,2.792-2.525,4.845-4.296c2.053-1.747,4.829,1.053,10.392,4.86
		c5.577,3.807,9.392,13.763,9.674,15.518c0.298,1.763-0.282,8.782-1.763,13.184c-1.465,4.402-6.5,13.245-6.5,13.245
		s4.982,6.149,2.045,15.235c-2.922,9.087-10.544,15.519-11.14,16.113c-0.587,0.588-9.834,5.227-14.274,4.822
		c-1.861-0.168-8.575,7.263-11.429,10.238c-3.616,3.746-12.68,10.644-15.625,13.26c-5.531,4.944-20.714,10.62-33.352,10.209
		c-9.411-0.29-18.166-1.732-21.69-2.617c-3.521-0.878-12.295-4.387-16.399-8.781c-4.097-4.388-14.942-17.868-17.578-22.568
		c-2.628-4.677-10.025-10.872-10.559-11.437c-3.449-3.753-9.064-9.368-9.064-9.368c-6.252-7.233-6.904-14.29-6.904-21.088
		c0-3.54,1.449-5.547,8.598-12.688c3.155-3.151,7.477-5.051,10.105-7.378c3.609-3.228,5.169-6.652,6.607-9.621
		c3.349-6.904,5.848-12.611,10.238-28.435c0,0,5.939-15.77,9.449-20.454c3.517-4.692,17.261-13.771,35.141-15.526
		c17.86-1.755,24.315-2.342,27.817-1.465c3.524,0.87,3.761,0.961,3.761,0.961l0.732,0.29l3.739,1.892L162.468,27.035"/>
	<path style="fill:#003263;" d="M166.436,33.635c0.267-0.26,2.357-5.875,6.645-8.248c4.342-2.38,19.73-10.643,19.73-10.643
		l15.167,21.835c0,0,1.823,2.075,1.061,5.478c-1.076,4.837-11.559,46.326-11.559,46.326s-2.617,10.559-7.027,17.143
		c-8.277,12.352-14.961,21.064-14.961,21.064l0.526,19.059c0,0,6.394-10.025,8.263-11.604c1.861-1.595,4.524-4.524,9.598-1.068
		c5.051,3.464,8.507,12.513,8.759,14.1c0.274,1.609-0.252,7.995-1.603,11.985c-1.319,3.998-6.378,14.122-6.378,14.122
		s4.524,5.585,1.861,13.855c-2.64,8.255-11.169,13.313-11.711,13.84c-0.526,0.526-5.303,2.25-9.315,1.877
		c-1.701-0.153-11.467,9.75-14.054,12.443c-3.28,3.418-11.535,9.696-14.205,12.069c-5.043,4.486-18.842,9.651-30.308,9.285
		c-8.56-0.267-16.537-1.579-19.714-2.388c-3.216-0.809-11.211-3.998-14.927-7.98c-3.723-3.998-13.577-16.243-15.969-20.508
		c-2.407-4.272-9.125-9.896-9.594-10.406c-3.147-3.411-8.274-8.515-8.274-8.515c-5.665-6.577-9.609-12.901-8.229-19.165
		c0.687-3.128,0.801-7.438,9.312-11.711c8.525-4.266,12.894-10.728,15.19-15.45c3.044-6.286,5.321-11.459,9.323-25.825
		c0,0,6.645-18.662,9.865-22.911c3.181-4.257,15.69-12.504,31.944-14.114c16.231-1.587,22.087-2.136,25.284-1.328
		c3.188,0.809,10.917,5.325,10.917,5.325l0.642,0.42l2.113,1.236L166.436,33.635"/>
	<path style="fill:#ED174C;" d="M177.07,145.756c0,0,7.996-10.391,11.2-11.978c0,0,1.19-0.802,2.533,0.663
		c1.327,1.458,6.118,7.714,7.179,10.91c1.068,3.197,2.801,4.532,0.816,10.651c-2.006,6.126-5.325,12.657-5.882,13.32
		c-1.129,1.358-1.648,2.151-3.716,0.39c0,0,4.387,5.744,4.387,12.649c0,6.942-3.853,10.384-5.317,11.719
		c-1.473,1.351-5.539,3.99-8.659,4.661c-2.388,0.526-5.585,0.534-5.585,0.534s-17.724,17.318-21.843,20.378
		c-4.127,3.06-11.178,9.186-18.631,11.314c-7.465,2.137-15.976,3.197-26.634,1.869c-5.814-0.725-16.865-3.272-21.4-7.545
		c-2.907-2.777-9.884-10.033-14.835-17.624c-4.906-7.592-7.564-9.453-10.773-13.191c-3.189-3.724-9.842-8.896-11.844-11.841
		c-1.992-2.914-5.993-9.453-5.726-13.443c0.534-7.973,6.119-10.383,7.465-11.185c1.32-0.801,7.194-3.73,9.319-6.126
		c2.136-2.396,6.653-7.454,7.576-10.254c0.938-2.793,2.933-6.127,4.944-12.643c1.808-5.958,6.862-23.17,13.05-33.569
		c0,0,2.388-3.723,6.638-3.723c4.265,0,15.72-0.786,15.72-0.786s6.004-8.789,9.785-11.131c0,0,2.136-1.587,3.06-1.198
		c0.927,0.404-1.458,2.594-1.458,2.594s-5.859,6.058-6.927,8.598c0,0-0.538,1.198,1.068,1.198c1.595,0,16.171-0.344,19.901-0.206
		c3.727,0.145,5.863,1.724,7.184,3.067c0,0,17.532,22.446,23.842,29.03c6.378,6.66,12.55,18.989,12.55,18.989
		C175.995,142.658,176.147,146.862,177.07,145.756"/>
	<path style="fill:#FFFFFF;" d="M175.491,148.145c0,0,1.663-3.838,0.564-6.295c-1.679-3.692-5.341-9.818-9.575-15.503
		c-1.037-1.357-13.61-15.999-13.61-15.999l-12.489-15.602c0,0-2.105-3.814-7.9-3.982c-3.551-0.099-18.559,0.152-18.559,0.152
		s-3.398,0.412-2.178-1.511c1.388-2.174,2.838-3.952,4.764-6.065c1.229-1.366,6.104-5.852,2.159-4.646
		c-2.594,0.786-6.885,5.318-11.616,12.215L92.976,91.58c0,0-5.413-0.832-8.488,4.143c-4.055,6.577-7.759,17.22-7.759,17.22
		l9.724-15.328l2.38,9.674l36.743,0.198l4.947-8.987c0,0,4.135-0.306,8.789,12.833c1.465,4.181,1.671,2.884,10.948,11.368
		C159.554,131.191,175.491,148.145,175.491,148.145"/>
	<path style="fill:#003263;" d="M74.879,116.551l11.043-20.63c0,0,1.289-2.228,1.945,0.176c0.664,2.388,5.062,21.965,5.203,23.292
		c0,0,0.538,4.387-1.19,0.396c-1.747-3.982-5.074-12.924-5.585-16.373c0,0-0.679-3.86-1.739-0.259c0,0-7.469,15.442-9.06,17.7
		c-1.594,2.266-2.937,4.532-2.396,2.006C73.624,120.32,74.879,116.551,74.879,116.551"/>
	<path style="fill:#003263;" d="M119.56,116.864c2.277-3.837,4.135-10.254,10.254-20.645c0.965-1.61,1.529-2.083,3.066-0.122
		c5.852,7.454,13.115,27.626,12.909,29.426c0,0,0.282,3.586-1.19,1.724c-2.708-3.418-9.193-23.567-11.719-26.489
		c0,0-1.465-0.946-3.322,2.922c0,0-7.45,14.916-9.052,17.174c-1.61,2.266-2.93,4.532-2.418,2.006
		C118.641,120.32,119.156,117.558,119.56,116.864"/>
	<polyline style="fill:#003263;" points="89.47,108.746 89.214,106.861 126.217,106.068 124.897,108.204 89.47,108.746 	"/>
	<path style="fill:#003263;" d="M79.88,147.351c2.667-0.274,0.809,1.595,0.809,1.595c-3.197,2.396-4.265,9.598-4.524,13.054
		c-0.251,3.602-0.423,8.377-0.423,8.377s-6.195-1.663-11.856-4.387c-1.354-0.641-5.18-0.915-7.24,0.984
		c-1.427,1.305-2.85,5.417-2.056,11.543c0.809,6.104,3.216,1.313,3.216,1.313c4.242,6.668,14.374,22.644,20.756,31.692
		c5.71,8.11,12.313,9.445,14.641,10.666c4.757,2.472,18.112,3.998,26.634,2.93c6.882-0.854,11.704-2.93,13.847-5.073
		c2.129-2.121,19.44-11.704,24.239-19.165c4.784-7.454,2.663-14.382,1.045-20.241c-1.579-5.844-7.713-5.585-7.713-5.585
		c-8.797,0.268-30.884-2.937-30.884-2.937c-0.271-1.061-1.873-4.784-5.867-7.462c-3.986-2.655-1.598,2.396-1.598,2.396
		c-0.271,0,3.459,6.134,3.459,6.134s-4.513,3.189-5.588,3.456c-1.068,0.268-3.982-0.526-9.048,2.129
		c-5.066,2.67-9.048,2.129-12.787,2.67c-3.727,0.534-6.954,0.252-8.541-2.67c-1.083-1.991-3.345-3.486-2.384-14.633
		c0.797-9.079,1.217-9.85,2.148-11.727c0.961-1.961,3.704-4.25,9.052-7.714c6.512-4.234,9.854-10.116,9.854-10.116
		c-0.805,1.045-5.867,5.059-5.867,5.059l-3.456-11.46l-5.329-15.976c-2.132,1.068-4.788,4.791-6.115,9.323
		c-1.343,4.517-4.597,14.534-6.935,20.774c-1.796,5.158-2.667,6.203-2.918,6.501C70.019,148.235,76.698,147.519,79.88,147.351"/>
	<path style="fill:#003263;" d="M114.502,149.487c0,0,8.53-13.863,9.602-17.319c1.053-3.448,4.517-15.175,7.725-18.089
		c0,0,2.121-1.618,3.449-0.275c1.319,1.335,7.721,10.651,10.643,20.775c2.945,10.116,4.814,22.385,8.813,29.313
		c0,0-16.289-8.889-21.332-10.552C124.947,150.517,114.502,149.487,114.502,149.487"/>
	<path style="fill:#FFFFFF;" d="M88.68,130.581c-0.801-2.86-5.054-15.441-5.054-15.441c-2.399,2.647-11.73,29.8-12.253,31.402
		l10.33-1.19c-0.019-1.663,0.58-7.889,2.388-9.308l3.776,0.244l-1.083-3.975C87.192,131.497,88.07,130.803,88.68,130.581"/>
	<path style="fill:#FFFFFF;" d="M143.119,134.022c-1.982-9.064-9.438-18.356-9.438-18.356c-4.268,3.204-7.999,18.379-8.525,19.958
		c-0.519,1.603-6.923,12.521-6.923,12.521s4.143,0.396,7.45,1.061c3.144,0.617,9.868,2.937,9.868,2.937
		c-0.915-2.052-0.229-9.872,1.938-12.039l4.814,0.442l-2.64-3.776C139.969,136.234,140.473,134.854,143.119,134.022"/>
	<path style="fill:#FFFFFF;" d="M145.127,179.829c0,0,7.721-0.252,8.529-0.519c0,0,3.73-0.794,3.99,2.396
		c0.274,3.204,1.083,11.703-0.512,14.907c0,0,1.831,2.129-12.81,13.047c-14.637,10.918-15.964,13.054-26.626,13.58
		c-10.647,0.542-22.103-1.854-24.22-2.93c0,0-8.632-4.265-14.114-11.177c-7.187-9.057-10.658-16.518-21.053-32.227
		c-1.209-1.831-0.153-6.226,0.793-6.928c1.167-0.824,3.586,0.1,5.607,1.076c1.705,0.823,11.452,3.997,11.452,4.265
		c0,0.252,1.599,5.059,4.25,6.92c2.663,1.869,10.12,5.859,22.114,1.587c0,0,4.791-3.716,11.173-4.517
		c0.862-0.366,3.479-1.564,5.074-3.548C120.018,178.502,135.926,179.936,145.127,179.829"/>
	<path style="fill:#003263;" d="M68.958,191.41c0,3.609-2.522-14.099-1.45-17.296c0,0,1.061,3.99,1.328,8.522
		C69.103,187.169,68.958,190.633,68.958,191.41"/>
	<path style="fill:#003263;" d="M81.482,207.272c0,3.578-4.253-15.313-2.655-21.851c0,0,1.053,4.013,1.335,8.537
		C80.414,198.49,81.482,206.486,81.482,207.272"/>
	<path style="fill:#003263;" d="M95.104,212.811c0.283,3.976-3.585-14.389-1.903-25.245c0,0,0.935,7.354,1.042,11.895
		C94.341,203.991,95.051,212.018,95.104,212.811"/>
	<path style="fill:#003263;" d="M112.633,216.717c0,3.586-4.112-18.646-2.525-25.161c0,0,1.064,4.005,1.347,8.521
		C111.706,204.617,112.633,215.924,112.633,216.717"/>
	<path style="fill:#003263;" d="M145.004,191.686c0,3.593-2.258-5.723-1.197-8.919c0,0,0.793-4.395,1.053,0.13
		C145.127,187.413,145.004,190.892,145.004,191.686"/>
	<path style="fill:#003263;" d="M101.2,183.575c0,0,17.441,2.655,22.495,2.388c0,0,1.061-0.541,1.316,2.137
		c0.286,2.654,2.29,17.182,2.807,19.043c0.543,1.854-1.029-18.014-1.461-19.318c-0.587-1.792,1.195-1.991,1.195-2.136
		c0,0,15.445-2.38,18.107-3.586c2.678-1.205,6.783-3.334,7.462-3.586l-5.463,0.794c0,0-15.705,4.737-22.24,4.859
		c-7.721,0.13-17.292-1.061-22.293-2.418L101.2,183.575"/>
	<path style="fill:#003263;" d="M142.197,117.787c0,0,16.769,13.596,23.704,23.704c0,0,5.852,16.777,7.995,19.715
		c0,0,1.595,3.99,1.854,0c0.267-3.998-0.26-13.062-0.26-13.062s-34.614-38.079-36.759-38.613L142.197,117.787"/>
	<path style="fill:#003263;" d="M179.733,155.605c0.664-5.211,7.202-10.391,9.857-11.727c0,0,3.73-1.846,1.869,2.137
		c-1.869,3.998-2.121,3.212-2.121,3.212s4.249,10.116,3.982,12.513c-0.26,2.396-2.129,6.92-6.912,1.594c0,0,2.396,1.587,3.99-0.274
		c1.602-1.854-2.389-9.186-2.389-11.451c0-0.268-3.471,2.937-4.272,7.735C183.738,159.344,178.421,166.523,179.733,155.605"/>
	<path style="fill:#ED174C;" d="M169.625,34.718c0,0,1.381-5.6,5.592-7.797c4.166-2.182,4.188-2.258,4.188-2.258l4.333,6.592
		l-2.464-7.53l2.602-1.328l2.655,3.525l-0.984-4.326l6.858-3.662l8.911,13.184l-5.844,4.272c0,0,5.439-2.274,7.042-2.419
		l1.396,1.938l-6.699,4.601c0,0,6.562-2.151,8.164-2.403l1.189,1.762l-2.06,7.965l-8.903,6.012l8.232-3.006l-1.977,8.637
		l-8.941,6.988c0,0,8.399-4.517,8.399-4.257c0,0.26-8.529,7.584-8.529,7.584l7.668-4.517l-1.19,4.929l-4.349,4.387l3.555-1.274
		l-2.922,12.329c0,0-13.664,9.461-13.664,9.72s3.464-1.335,4.395-1.877c0,0-1.343,2.006-1.343,1.724
		c0-0.251,5.333-1.724,5.333-1.724s-8.255,6.134-8.255,5.875c0-0.274,11.047-5.462,11.047-5.462s-1.563,4.806-2.762,7.217
		c-1.175,2.342-5.264,8.255-5.264,8.255l-8.354,3.434l6.073-0.267l-1.008,1.472l-4.929,1.595l4.067-0.526l-6.333,8.514
		c0,0-5.195-8.652-4.791-10.658c0,0,1.725-7.187,1.189-9.85c0,0-1.189,5.051-2.791,6.256l-11.582-21.706L169.625,34.718"/>
	<line style="fill:#231F20;" x1="188.141" y1="35.115" x2="187.355" y2="34.718"/>
	<path style="fill:#003263;" d="M164.429,78.236c0,0,0,5.081,3.075,7.606C167.504,85.843,166.152,79.19,164.429,78.236"/>
	<path style="fill:#003263;" d="M165.901,71.454c0,0,1.061,6.531,4.128,9.056C170.029,80.51,167.648,72.392,165.901,71.454"/>
	<path style="fill:#003263;" d="M170.83,47.627c0,0,3.196,12.253,6.24,14.771C177.07,62.397,172.555,48.558,170.83,47.627"/>
	<path style="fill:#003263;" d="M180.687,29.912c0,0-0.411,3.059,1.87,5.203C182.557,35.115,181.885,30.979,180.687,29.912"/>
	<path style="fill:#003263;" d="M187.355,34.321c-0.283,0.519-12.269,47.928-13.596,56.702c0,0,13.176-48.065,14.381-55.908
		L187.355,34.321"/>
	<path style="fill:#003263;" d="M171.891,98.484c0,0,0.145-2.792,1.075-3.99C172.966,94.494,172.966,96.76,171.891,98.484"/>
	<path style="fill:#003263;" d="M178.566,87.041c-3.602,0.809,13.564-8.804,16.502-8.667
		C195.068,78.374,181.465,86.369,178.566,87.041"/>
	<path style="fill:#003263;" d="M186.623,49.328c-3.586,0.832,13.572-8.789,16.502-8.644
		C203.125,40.684,189.537,48.665,186.623,49.328"/>
	<path style="fill:#003263;" d="M188.873,63.344c-1.801,0.419,6.783-4.379,8.255-4.318
		C197.128,59.025,190.323,63.023,188.873,63.344"/>
	<path style="fill:#003263;" d="M145.08,197.011c0.275,0,1.596,3.144,1.596,3.952c0,0.777-1.061,2.884-1.061,2.884l-0.794-2.633
		L145.08,197.011"/>
	<path style="fill:#ED174C;" d="M105.038,182.156c0,0,4.414-2.35,7.847-2.785c2.823-0.366,5.958-3.708,5.958-3.708
		s-0.176,1.801,9.803,3.075c9.957,1.289,17.22,1.068,17.22,1.068s-12.237,4.021-21.122,4.447
		C116.356,184.636,106.22,182.561,105.038,182.156"/>
	<path style="fill:#FFFFFF;" d="M182.229,218.678h-2.77v7.546h-1.877v-7.546h-2.762v-1.633h7.408V218.678 M194.771,226.224h-1.869
		v-7.302h-0.046l-2.654,7.302h-1.809l-2.571-7.302h-0.038v7.302h-1.877v-9.179h3.243l2.136,5.989h0.046l2.22-5.989h3.22V226.224z"/>
</g>
</svg>
