<?xml version="1.0" encoding="iso-8859-1"?>
<!-- Generator: Adobe Illustrator 14.0.0, SVG Export Plug-In . SVG Version: 6.00 Build 43363)  -->
<!DOCTYPE svg PUBLIC "-//W3C//DTD SVG 1.1//EN" "http://www.w3.org/Graphics/SVG/1.1/DTD/svg11.dtd">
<svg version="1.1" id="Layer_1" xmlns="http://www.w3.org/2000/svg" xmlns:xlink="http://www.w3.org/1999/xlink" x="0px" y="0px"
	 width="250px" height="250px" viewBox="0 0 250 250" style="enable-background:new 0 0 250 250;" xml:space="preserve">
<g>
	<rect y="0.02" style="fill:#004684;" width="250" height="250"/>
	<path style="fill:#FFFFFF;" d="M28.427,43.683c0-15.488-9.415-20.447-17.837-20.348l-2.777-0.099v-8.026h31.738h23.224l0.016,8.187
		c-7.881,0.648-15.93,5.958-15.93,20.287l-0.008,48.21l3.83-2.365c7.919-12.382,28.694-45.181,33.028-54.642
		c5.31-11.62-2.815-11.62-10.62-11.62v-8.102h48.721v8.102h-3.441c-5.31,0-11.864,0-20.607,11.971
		c-11.2,15.328-33.424,52.459-33.424,52.459c34.042,2.815,46.852,54.581,55.595,61.615c-5.005-36.972,19.668-83.092,55.901-81.329
		c4.066,0.19,9.056-0.359,20.606,3.166c11.566,3.525,12.619-2.815,14.176-9.857h8.637v60.913h-7.478
		c-0.617-10.566-5.348-45.44-35.835-46.478c-31.028-1.053-36.842,38.711-37.27,65.834c-1.557,100.349,61.531,97.19,73.074,64.788
		c1.693-4.707,0.954-6.02-0.931-7.034c-13.74-7.393,2.189-27.115,11.017-9.857c4.052,7.904-3.204,45.418-41,45.418
		c-58.716,0-75.89-90.851-97.748-120.415c-17.029-23.033-30.922-12.68-36.148-7.042l-0.229,15.831l0.145,28.175
		c0,15.487,9.407,20.454,17.837,20.348l2.777,0.106v8.019H37.644H7.813v-8.019l2.777-0.106c8.423,0.106,17.837-4.86,17.837-20.348
		V43.683"/>
	<path style="fill:#FFFFFF;" d="M242.188,233.548h-2.137v-8.293h-0.045l-3.014,8.293h-2.053l-2.93-8.293h-0.038v8.293h-2.129
		v-10.414h3.686l2.426,6.806h0.038l2.525-6.806h3.67 M227.936,224.987h-3.143v8.561h-2.129v-8.561h-3.136v-1.854h8.407V224.987z"/>
</g>
</svg>
