<?xml version="1.0" encoding="iso-8859-1"?>
<!-- Generator: Adobe Illustrator 14.0.0, SVG Export Plug-In . SVG Version: 6.00 Build 43363)  -->
<!DOCTYPE svg PUBLIC "-//W3C//DTD SVG 1.1//EN" "http://www.w3.org/Graphics/SVG/1.1/DTD/svg11.dtd">
<svg version="1.1" id="Layer_1" xmlns="http://www.w3.org/2000/svg" xmlns:xlink="http://www.w3.org/1999/xlink" x="0px" y="0px"
	 width="250px" height="250px" viewBox="0 0 250 250" style="enable-background:new 0 0 250 250;" xml:space="preserve">
<g>
	<rect style="fill:#CE1141;" width="250" height="250"/>
	<path style="fill:#FFFFFF;" d="M113.861,171.295l5.775-19.821l5.752,19.821 M134.262,242.188h66.796
		c-6.165-4.196-11.635-11.535-14.054-19.928l-18.677-64.087c-2.014-6.882,1.267-13.779,6.516-18.448
		c-7.446-2.304-14.061-7.465-16.136-14.606l-10.46-35.858c14.869-4.975,24.566-13.794,24.566-24.018
		c0-13.367-16.541-24.303-39.566-27.439l-8.735-29.991h-9.796l-8.736,29.991c-23.025,3.136-39.574,14.072-39.574,27.439
		c0,10.224,9.697,19.043,24.582,24.018l-10.452,35.858c-2.068,7.142-8.69,12.303-16.152,14.606
		c5.249,4.669,8.538,11.566,6.531,18.448L52.231,222.26c-2.464,8.393-7.881,15.731-14.031,19.928h66.795
		c-5.455-4.196-8.446-11.535-6.004-19.928l1.648-5.585h37.979l1.625,5.585C142.692,230.652,139.702,237.991,134.262,242.188z"/>
	<path style="fill:#003263;" d="M107.742,175.857l11.895-40.71l11.849,40.71 M189.812,237.641
		c-3.182-4.166-5.714-9.019-7.194-14.084l-18.563-63.66c-2.93-10.101,2.51-17.272,3.22-18.417
		c-6.446-3.494-11.169-8.809-12.962-15.095l-11.276-38.727c15.907-4.242,26.756-12.68,26.756-22.415
		c0-12.314-17.433-22.602-40.535-24.875l-8.155-27.992h-2.945l-8.163,27.992c-23.102,2.273-40.558,12.562-40.558,24.875
		c0,9.735,10.864,18.173,26.779,22.415l-11.292,38.727c-1.816,6.286-6.523,11.601-12.97,15.095c0.725,1.145,6.172,8.316,3.22,18.417
		l-18.547,63.66c-1.48,5.065-4.013,9.918-7.217,14.084h46.249c-3.73-8.24-1.77-14.236-0.091-19.897l1.64-5.631h44.838l1.648,5.631
		c1.64,5.661,3.608,11.657-0.122,19.897H189.812z"/>
	<path style="fill:#CE1141;" d="M98.16,183.045l21.477-73.537l21.408,73.537 M177.528,230.438c-0.999-2.137-1.877-4.334-2.54-6.577
		l-17.739-60.699c-2.776-9.476-1.251-13.58,0.778-19.303c-5.34-4.073-8.88-9.398-10.604-15.399l-27.786-95.463L91.805,128.46
		c-1.74,6.001-5.242,11.326-10.59,15.399c2.007,5.723,3.563,9.827,0.771,19.303l-17.753,60.699c-0.664,2.243-1.511,4.44-2.548,6.577
		h25.284c-0.61-3.83-0.03-8.865,1.053-12.451l3.784-13.062h55.618l3.83,13.062c1.022,3.586,1.609,8.621,1.022,12.451H177.528z"/>
	<path style="fill:#900028;" d="M119.637,71.865V32.997L91.805,128.46c-1.74,6.001-5.242,11.326-10.59,15.399
		c2.007,5.723,3.563,9.827,0.771,19.303l-17.753,60.699c-0.664,2.243-1.511,4.44-2.548,6.577h25.284l-11.375-7.69"/>
	<polyline style="fill:#900028;" points="119.637,109.508 141.045,183.045 155.258,194 119.637,71.865 	"/>
	<path style="fill:#900028;" d="M177.528,230.438l-14.092-8.423L155.258,194H83.984l7.82,10.926h55.618l3.83,13.062
		c1.022,3.586,1.609,8.621,1.022,12.451"/>
	<path style="fill:#900028;" d="M127.137,58.834l-1.183-4.089c-2.067-0.107-4.173-0.183-6.317-0.183
		c-2.182,0-4.28,0.076-6.355,0.183l-1.175,4.089c2.411-0.137,4.921-0.229,7.53-0.229C122.185,58.605,124.71,58.697,127.137,58.834"
		/>
	<path style="fill:#999596;" d="M105.286,82.241l2.044-7.035c-12.909-1.541-22.079-5.447-22.079-9.964
		c0-5.905,15.388-10.681,34.386-10.681c18.975,0,34.37,4.776,34.37,10.681c0,4.517-9.186,8.423-22.095,9.964l2.021,7.035
		c16.641-2.487,28.572-9.14,28.572-16.999c0-9.949-19.203-18.036-42.869-18.036c-23.735,0-42.893,8.087-42.893,18.036
		C76.744,73.101,88.653,79.754,105.286,82.241"/>
	<path style="fill:#FFFFFF;" d="M211.8,237.381h-1.351v-5.219h-0.022l-1.9,5.219h-1.289l-1.847-5.219h-0.022v5.219h-1.343v-6.562
		h2.319l1.525,4.272h0.031l1.587-4.272h2.312 M202.835,231.994h-1.976v5.387h-1.351v-5.387h-1.969v-1.175h5.295V231.994z"/>
</g>
</svg>
