<?xml version="1.0" encoding="utf-8"?>
<!-- Generator: Adobe Illustrator 13.0.2, SVG Export Plug-In  -->
<!DOCTYPE svg PUBLIC "-//W3C//DTD SVG 1.1//EN" "http://www.w3.org/Graphics/SVG/1.1/DTD/svg11.dtd" [
	<!ENTITY ns_flows "http://ns.adobe.com/Flows/1.0/">
]>
<svg version="1.1"
	 xmlns="http://www.w3.org/2000/svg" xmlns:xlink="http://www.w3.org/1999/xlink" xmlns:a="http://ns.adobe.com/AdobeSVGViewerExtensions/3.0/"
	 x="0px" y="0px" width="250px" height="250px" viewBox="-0.021 0 250 250" enable-background="new -0.021 0 250 250"
	 xml:space="preserve">
<defs>
</defs>
<rect fill="#001850" width="250.021" height="250.021"/>
<path fill="#FFFFFF" d="M214.564,172.048h-2.85v7.763h-1.93v-7.763h-2.848v-1.686h7.627V172.048 M227.497,179.811h-1.932v-7.522
	h-0.042l-2.744,7.522h-1.86l-2.65-7.522h-0.048v7.522h-1.932v-9.448h3.352l2.198,6.174h0.048l2.29-6.174h3.32V179.811z"/>
<path fill="#B99764" d="M102.483,201.108c-3.551,0.975-7.067,2.024-10.548,3.157l11.532,5.696c3.309-0.928,6.647-1.786,10.017-2.558
	L102.483,201.108"/>
<path fill="#B99764" d="M129.96,195.404c-3.651,0.525-7.27,1.141-10.857,1.833l10.741,7.062c3.39-0.511,6.806-0.96,10.246-1.316
	L129.96,195.404"/>
<path fill="#B99764" d="M125.219,184.998l-6.64,10.106c3.647-0.716,7.321-1.333,11.027-1.874l7.329-9.793
	C133.001,183.865,129.09,184.382,125.219,184.998"/>
<path fill="#B99764" d="M75.937,210.157c-3.402,1.399-6.762,2.875-10.076,4.43l12.138,4.228c3.169-1.324,6.374-2.583,9.62-3.763
	L75.937,210.157"/>
<path fill="#B99764" d="M63.123,215.881c-3.306,1.604-6.563,3.288-9.772,5.04l12.375,3.479c3.083-1.52,6.204-2.968,9.372-4.351
	L63.123,215.881"/>
<path fill="#B99764" d="M89.049,205.214c-3.483,1.192-6.923,2.456-10.328,3.805l11.865,4.972c3.249-1.128,6.531-2.181,9.848-3.157
	L89.049,205.214"/>
<path fill="#B99764" d="M104.777,198.215c3.594-0.929,7.223-1.781,10.889-2.55l6.698-10.191c-3.901,0.669-7.77,1.431-11.596,2.276
	L104.777,198.215"/>
<path fill="#B99764" d="M116.118,197.826c-3.611,0.745-7.187,1.584-10.725,2.505l11.174,6.39c3.359-0.717,6.751-1.361,10.169-1.924
	L116.118,197.826"/>
<path fill="#B99764" d="M144.164,182.753c-1.46,0.11-2.907,0.253-4.359,0.393l-7.228,9.665c3.671-0.484,7.382-0.879,11.113-1.189
	l7.919-9.328C149.134,182.415,146.652,182.56,144.164,182.753"/>
<path fill="#B99764" d="M132.94,194.977l10.303,7.719c0.827-0.075,1.649-0.158,2.473-0.227c2.621-0.208,5.231-0.345,7.832-0.46
	l-9.654-8.198C140.214,194.115,136.56,194.499,132.94,194.977"/>
<path fill="#B99764" d="M91.171,202.206c3.535-1.153,7.102-2.219,10.714-3.207l6.081-10.627c-3.854,0.901-7.663,1.898-11.439,2.979
	L91.171,202.206"/>
<path fill="#B99764" d="M219.767,198.889c-17.019-4.642-34.632-7.762-52.914-8.048l1.92,1.124l-1.83,1.075
	c18.019,0.297,35.825,2.045,52.791,6.084L219.767,198.889"/>
<path fill="#B99764" d="M52.188,219.055c3.267-1.794,6.589-3.506,9.946-5.139l4.024-11.545c-3.615,1.603-7.183,3.285-10.704,5.053
	L52.188,219.055"/>
<path fill="#B99764" d="M77.845,207.001c3.46-1.366,6.958-2.662,10.504-3.868l5.396-10.948c-3.788,1.139-7.53,2.369-11.229,3.682
	L77.845,207.001"/>
<path fill="#B99764" d="M64.832,212.642c3.368-1.583,6.778-3.082,10.241-4.508l4.734-11.297c-3.714,1.369-7.376,2.823-10.991,4.372
	L64.832,212.642"/>
<path fill="#B99764" d="M209.8,187.813c-18.441-3.417-37.688-4.241-57.2-3.378l1.892-2.257c19.01-0.684,37.471,1.595,55.36,5.448
	L209.8,187.813"/>
<path fill="#B99764" d="M206.434,204.877c-16.89-3.663-34.31-5.83-52.289-5.108l2.536,2.11c16.909-0.491,33.646,0.259,49.696,3.193
	L206.434,204.877"/>
<polyline fill="#B99764" points="151.656,185.452 145.61,192.561 152.974,198.754 164.464,191.877 151.656,185.452 "/>
<path fill="#B99764" d="M79.732,190.05l17.291-63.334l4.642,49.813l5.488,5.376c4.622-1.245,15.126-3.172,20.771-3.894
	l30.154-52.886c-1.664,6.003-2.771,9.994-2.771,9.988c-4.051,14.343-0.97,29.573,7.851,38.784c1.027,1.068,4.641,4.609,5.386,5.386
	c7.303,7.62,17.839,10.282,29.682,7.484l2.885-0.695l-0.367-5.745l-5.384-5.387l-2.948-0.314c-0.781-0.076-1.529-0.268-2.24-0.564
	c-3.609-6.707-3.903-16.999-1.965-23.705L220.11,35.737c0.569-1.926,1.563-2.636,3.377-3.925c2.501-1.784,5.927-4.221,7.7-10.671
	l1.549-5.63l-5.384-5.386l-39.627,9.706l-56.958,99.913c-1.355-14.313-2.832-29.873-2.832-29.873
	c-1.229-13.068-6.159-24.171-14.334-32.469c-0.97-0.983-4.94-4.959-5.966-5.969c-1.221-1.196-2.518-2.339-3.878-3.413
	C93.516,39.95,80.064,36.24,65.882,37.576c-12.908,1.215-24.933,7.313-33.851,17.165c-8.852,9.791-13.73,22.24-13.73,35.057
	c0,12.675,4.042,23.7,11.389,31.044c0.896,0.9,4.473,4.476,5.382,5.385c5.111,5.106,11.475,8.039,17.458,8.039
	c1.942,0,3.813-0.314,5.564-0.885l-11.34,41.282c-0.556,1.876-1.353,7.004-3.602,8.45c-2.607,1.651-7.107,5.253-8.896,11.755
	l-2.79,10.016l5.384,5.389C48.247,203.538,64.194,195.188,79.732,190.05 M65.351,108.988c-0.914-0.914-4.992-9.399-5.906-10.316
	c-3.41-3.406-7.481-5.89-12.298-5.89c-1.765,0-3.501,0.272-5.167,0.772c-0.404-1.463-0.621-2.983-0.621-4.524
	c0-14.27,11.325-26.509,25.778-27.87c4.592-0.433,9.119,0.257,13.251,1.917l-11.645,2.857l-0.531,1.936
	c-1.961,7.06,2.819,9.004,4.621,9.738c0.227,0.097,1.26-0.399,0.439,0.543l-7.188,26.158
	C66.165,105.188,65.622,109.267,65.351,108.988z"/>
<path fill="#001850" d="M74.388,184.561l20.872-76.492l6.406,68.461c5.357-1.432,14.048-3.061,20.87-3.901l43.524-76.316
	c-5.014,18.099-10.751,38.813-10.751,38.803c-4.051,14.343-0.97,29.573,7.851,38.784c7.299,7.619,17.841,10.279,29.681,7.482
	l2.888-0.696l-0.367-5.743l-2.948-0.314c-2.669-0.278-4.941-1.794-6.757-4.492c-4.427-6.59-4.925-17.95-2.831-25.161l31.897-114.619
	c0.574-1.933,1.567-2.642,3.379-3.931c2.503-1.778,5.922-4.22,7.699-10.665l1.553-5.635l-39.627,9.706l-61.136,107.249
	c-1.481-15.605-4.042-42.594-4.042-42.594c-1.438-15.298-7.939-27.904-18.791-36.465C93.516,39.95,80.064,36.24,65.882,37.576
	c-12.908,1.215-24.933,7.313-33.851,17.165c-8.852,9.791-13.73,22.24-13.73,35.057c0,12.675,4.042,23.7,11.389,31.044
	c5.112,5.111,11.471,8.042,17.457,8.042c5.664,0,10.725-2.626,14.036-6.725l-14.43,52.504c-0.556,1.876-1.765,6.745-3.843,8.135
	c-2.488,1.664-6.865,5.568-8.655,12.07l-2.79,10.016C41.324,198.988,58.905,189.83,74.388,184.561 M68.744,65.934l-0.531,1.936
	c-1.961,7.06,2.819,9.004,4.621,9.738c0.155,0.065,0.347,0.145,0.52,0.221c-0.042,0.203-8.347,30.414-8.347,30.414
	c-0.549-3.837-2.309-7.38-5.1-10.173c-3.41-3.406-7.944-5.288-12.76-5.288c-2.551,0-5.042,0.546-7.336,1.574
	c-2.458-2.993-3.838-6.786-3.838-10.716c0-14.262,11.319-26.503,25.781-27.866c7.764-0.734,15.333,1.727,21.136,6.692L68.744,65.934
	z"/>
<path fill="#FFFFFF" d="M71.524,181.893l25.38-92.863l7.819,83.271c2.778-0.579,9.504-1.999,15.681-2.838l56.298-98.735
	l-18.088,65.324c-6.215,21.979,5.757,48.532,33.436,41.993c-12.758-1.356-16.053-21.835-12.535-33.994l31.916-114.658
	c1.992-6.78,8.406-4.891,11.06-14.544l-32.515,7.955l-65.777,115.391l-5.067-53.389c-2.82-29.979-26.212-46.33-52.925-43.817
	c-25.045,2.36-44.475,24.18-44.475,48.809c0,23.822,14.667,35.649,25.415,35.649c8.069,0,14.615-6.542,14.615-14.612
	c0-8.076-6.546-14.617-14.615-14.617c-2.966,0-5.718,0.885-8.019,2.392c-4.051-3.694-6.587-9.036-6.587-14.97
	c0-16.078,12.519-29.743,28.889-31.282c11.184-1.057,21.56,3.815,28.037,12.025l-17.951,4.407
	c-2.198,7.924,6.924,3.473,5.065,10.272l-27.311,99.023c-3.071,11.134-8.466,5.571-12.277,19.574
	C46.817,192.205,59.176,186.364,71.524,181.893"/>
<path fill="#B99764" d="M21.088,242.348c9.306-7.379,19.201-14.066,29.638-19.952l-1.159-1.875
	c-10.498,5.934-20.457,12.667-29.821,20.096L21.088,242.348"/>
</svg>
