<?xml version="1.0" encoding="iso-8859-1"?>
<!-- Generator: Adobe Illustrator 14.0.0, SVG Export Plug-In . SVG Version: 6.00 Build 43363)  -->
<!DOCTYPE svg PUBLIC "-//W3C//DTD SVG 1.1//EN" "http://www.w3.org/Graphics/SVG/1.1/DTD/svg11.dtd">
<svg version="1.1" id="Layer_1" xmlns="http://www.w3.org/2000/svg" xmlns:xlink="http://www.w3.org/1999/xlink" x="0px" y="0px"
	 width="250px" height="250px" viewBox="0 0 250 250" style="enable-background:new 0 0 250 250;" xml:space="preserve">
<g>
	<rect y="0.02" style="fill-rule:evenodd;clip-rule:evenodd;fill:#002B5C;" width="250" height="250"/>
	<path style="fill:#FFFFFF;" d="M162.667,215.146h-2.747v7.49h-1.869v-7.49h-2.755v-1.634h7.371V215.146 M175.148,222.637h-1.861
		v-7.263h-0.039l-2.654,7.263h-1.793l-2.557-7.263h-0.045v7.263h-1.854v-9.124h3.218l2.122,5.959h0.053l2.206-5.959h3.204V222.637z"
		/>
	<path style="fill:#FFFFFF;" d="M146.24,206.014v11.077l14.786,23.507h-55.611l14.771-23.507v-12.176
		C129.203,205.708,141.037,206.418,146.24,206.014"/>
	<path style="fill:#003263;" d="M118.583,204.915c0,0,0,10.855,0,11.718c-0.473,0.755-16.075,25.574-16.075,25.574h61.424
		c0,0-15.609-24.819-16.083-25.574c0-0.854,0-12.359,0-12.359l-1.731,0.138c-4.952,0.39-16.519-0.268-25.787-1.099l-1.748-0.152
		V204.915 M121.552,217.945l0.236-0.389c0,0,0-8.378,0-10.918c7.759,0.656,17.258,1.228,22.857,1.022c0,2.396,0,9.896,0,9.896
		s11.002,17.501,13.475,21.446c-4.93,0-44.877,0-49.806,0C110.794,235.058,121.552,217.945,121.552,217.945z"/>
	<path style="fill:#FFFFFF;" d="M146.24,128.896V31.277c7.629,0.603,44.304,2.411,58.136,6.02
		c7.225,17.646,21.973,27.694,32.669,27.862c0.146,0-7.217-25.932-5.203-45.166c-24.063-5.623-71.365-10.559-98.624-10.559
		c-27.261,0-74.563,4.937-98.619,10.559c2.014,19.234-5.355,45.166-5.203,45.166c10.689-0.168,25.452-10.216,32.662-27.862
		c13.832-3.609,50.514-5.417,58.128-6.02V129.3v46.257c7.827,2.006,24.467,1.304,26.054,1.099V128.896"/>
	<path style="fill:#003263;" d="M133.218,7.832c-28.046,0-75.219,5.051-98.985,10.597l-1.381,0.32l0.153,1.404
		c0.786,7.515,0.572,21.141-4.883,43.389c-0.397,1.633-0.481,1.976,0.015,2.609l0.488,0.625l0.793-0.015
		C40.131,66.601,55.374,56.66,63.08,38.716c11.657-2.884,38.23-4.601,51.14-5.417c0,0,2.586-0.183,4.364-0.305
		c0,3.319,0,143.806,0,143.806l1.206,0.305c8.034,2.062,24.934,1.366,26.656,1.146l1.404-0.183c0,0,0-141.755,0-145.074
		c1.778,0.122,4.356,0.305,4.356,0.305c12.909,0.816,39.49,2.533,51.141,5.417c7.721,17.944,22.964,27.885,33.684,28.046
		l0.793,0.015l0.48-0.625c0.496-0.633,0.42-0.977,0.023-2.579c-5.47-22.247-5.677-35.889-4.898-43.419l0.145-1.404l-1.373-0.32
		C208.45,12.883,161.271,7.832,133.218,7.832 M133.218,11.037c27.404,0,73.035,4.86,96.954,10.254
		c-0.146,1.731-0.283,3.524-0.283,5.829c0,8.057,1.168,19.798,5.044,35.95c-9.705-1.297-22.484-10.284-29.069-26.382l-0.305-0.74
		l-0.777-0.198c-11.658-3.044-39.147-4.807-52.368-5.653l-7.752-0.526l-0.016,1.709c0,0,0,141.036,0,143.867
		c-3.761,0.221-15.861,0.473-22.857-0.983c0-2.61,0-144.593,0-144.593l-7.774,0.526c-13.214,0.847-40.703,2.609-52.36,5.653
		l-0.778,0.198l-0.305,0.74c-6.577,16.105-19.356,25.085-29.061,26.382c3.868-16.159,5.036-27.893,5.036-35.95
		c0-2.304-0.137-4.097-0.282-5.829C60.196,15.896,105.827,11.037,133.218,11.037z"/>
	<path style="fill:#CE1141;" d="M118.24,53.417C81.535,58.033,59.379,78.19,44.212,98.431c-4.005,5.363-27.245,27.138-34.866,31.952
		c13.229,8.408,32.623,26.177,45.7,41.809c14.412,17.229,35.866,32.662,78.979,34.875c50.567,2.609,97.412-23.651,106.231-62.538
		l-34.882-0.39c-5.615,17.624-41.671,33.051-71.35,31.654c-44.304-2.067-71.052-23.879-70.968-45.585
		c0.084-21.5,21.248-41.016,55.199-46.601"/>
	<path style="fill:#CE1141;" d="M148.186,81.746c53.924,2.426,61.271,34.988,62.408,39.139l30.06-0.412
		c-1.129-28.023-31.111-64.156-92.468-68.108"/>
</g>
</svg>
