<?xml version="1.0" encoding="iso-8859-1"?>
<!-- Generator: Adobe Illustrator 14.0.0, SVG Export Plug-In . SVG Version: 6.00 Build 43363)  -->
<!DOCTYPE svg PUBLIC "-//W3C//DTD SVG 1.1//EN" "http://www.w3.org/Graphics/SVG/1.1/DTD/svg11.dtd">
<svg version="1.1" id="Layer_1" xmlns="http://www.w3.org/2000/svg" xmlns:xlink="http://www.w3.org/1999/xlink" x="0px" y="0px"
	 width="250px" height="250px" viewBox="0 0 250 250" style="enable-background:new 0 0 250 250;" xml:space="preserve">
<g>
	<rect style="fill:#004785;" width="250" height="250"/>
	<path style="fill:#F47937;" d="M162.828,100.02v22.703l-10.609-12.879C155.406,106.129,158.977,102.766,162.828,100.02
		 M125,123.425C114.43,95.563,97.743,83.137,86.438,77.41V60.691l42.921,52.722C127.813,116.503,126.359,119.839,125,123.425z
		 M184.375,154.28V94.543c9.327,3.824,11.687,17.839,4.374,24.597c0,0,18.328-1.895,18.328-20.847
		c0-14.949-12.125-23.586-22.702-25.633V30.782c0.078-4.813,12.421-10.723,17.718-0.875c9.031-11.797-3.984-35.117-28.499-19.929
		c-24.492-15.188-37.508,8.132-28.469,19.929c5.297-9.848,17.625-3.938,17.703,0.875v47c-6.438,3.359-14.484,8.887-22.141,18.082
		L86.516,30.184c1.023-4.684,12.563-9.727,17.633-0.277C113.188,18.11,100.18-5.21,75.672,9.978
		C51.157-5.21,38.149,18.11,47.188,29.907c5.297-9.848,17.633-3.938,17.711,0.875v42.023c-10.391,2.289-21.977,10.883-21.977,25.488
		c0,18.953,18.328,20.847,18.328,20.847c-7.133-6.578-5.078-20.035,3.648-24.269v59.409c-0.078,4.813-12.414,10.727-17.711,0.883
		c-9.039,11.789,3.969,35.109,28.484,19.922c24.508,15.188,37.516-8.133,28.477-19.922c-5.297,9.844-17.625,3.93-17.711-0.883
		V99.508c15.555,10.597,26.445,31.644,27.75,43.851v69.234c0,11.211-12.422,19.28-17.703,9.438
		c-9.047,11.796,3.961,32.851,28.476,17.663c24.5,15.188,37.508-5.867,28.469-17.663c-5.289,9.843-17.703,0.844-17.703-9.438
		v-68.242c0.297-4.57,2.094-10.586,5.07-16.878l22.016,27.058c-0.469,4.758-12.477,10.32-17.688,0.633
		c-9.039,11.789,3.977,35.109,28.469,19.922c24.515,15.188,37.53-8.133,28.499-19.922
		C196.796,165.007,184.453,159.093,184.375,154.28z"/>
	<path style="fill:#F47937;" d="M222.743,156.626h-1.158v-4.478h-0.019l-1.632,4.478h-1.113l-1.585-4.478h-0.019v4.478h-1.149
		v-5.627h1.993l1.298,3.681h0.037l1.354-3.681h1.993 M215.03,152h-1.697v4.626h-1.149V152h-1.696v-1.001h4.543V152z"/>
</g>
</svg>
