<?xml version="1.0" encoding="utf-8"?>
<!-- Generator: Adobe Illustrator 11.0, SVG Export Plug-In  -->
<!DOCTYPE svg PUBLIC "-//W3C//DTD SVG 1.0//EN"    "http://www.w3.org/TR/2001/REC-SVG-20010904/DTD/svg10.dtd" [
	<!ENTITY ns_flows "http://ns.adobe.com/Flows/1.0/">
	<!ENTITY ns_svg "http://www.w3.org/2000/svg">
	<!ENTITY ns_xlink "http://www.w3.org/1999/xlink">
]>
<svg  xmlns="&ns_svg;" xmlns:xlink="&ns_xlink;" xmlns:a="http://ns.adobe.com/AdobeSVGViewerExtensions/3.0/"
	 width="301" height="301" viewBox="-0.111 -0.444 301 301" xml:space="preserve">
	<defs>
	</defs>
	<g>
		<rect fill="#0F1C43" width="300" height="300"/> 
		<path fill="#FFFFFF" stroke="#FFFFFF" d="M31.554,86.643c3.799,0.142,23.85-21.491,26.791-23.703
			c21.438,29.347,22.032,39.505,71.449,84.088c-2.975-20.317-38.262-80.601-56.562-99.327c8.932-9.029,27.56-27.152,32.744-33.296
			c5.491,15.799,25.006,77.316,45.252,114.563l0,0c15.479-29.347,42.52-103.844,42.271-115.128
			c8.849,8.192,22.393,25.94,32.153,34.427c-19.056,14.673-51.801,81.83-63.711,113.435c-3.451,9.167-0.593,14.673-0.593,14.673
			c10.674,8.192,46.44,41.762,52.991,47.97C201.243,139.693,228.63,83.257,247.682,62.94c3.053,3.219,12.271,10.933,22.03,20.881
			c-10.12,13.544-30.136,48.92-30.96,85.782c-1.192,53.049,7.738,76.188,22.027,97.069c-6.391,7.835-11.179,7.321-20.241,18.06
			c-14.338-13.164-68.987-62.478-78.596-71.109l0,0l1.79,40.069c0.456,2.339,0.969,23.352,10.12,33.299
			c-20.102,0.026-23.964,0.028-44.059,0.563c6.71-9.071,8.778-28.845,8.932-34.989l-0.598-63.773
			c-7.932-7.607-47.121-43.191-50.606-46.842l0,0c4.165,21.446,4.764,88.04-25.004,138.27c-2.443-3.514-27.299-33.074-26.797-33.863
			c9.15-14.338,25.295-46.615,25.601-76.752C61.88,114.572,40.399,100.102,31.554,86.643"/>
	</g>
</svg>
