<?xml version="1.0" encoding="iso-8859-1"?>
<!-- Generator: Adobe Illustrator 14.0.0, SVG Export Plug-In . SVG Version: 6.00 Build 43363)  -->
<!DOCTYPE svg PUBLIC "-//W3C//DTD SVG 1.1//EN" "http://www.w3.org/Graphics/SVG/1.1/DTD/svg11.dtd">
<svg version="1.1" id="Layer_1" xmlns="http://www.w3.org/2000/svg" xmlns:xlink="http://www.w3.org/1999/xlink" x="0px" y="0px"
	 width="250px" height="250px" viewBox="0 0 250 250" style="enable-background:new 0 0 250 250;" xml:space="preserve">
<g>
	<rect style="fill:#CE1141;" width="250" height="250"/>
	<path style="fill:#FFFFFF;" d="M179.543,66.738c-2.137-18.467-13.153-27.142-32.723-25.826l-5.051,0.343v62.752l6.416-1.202
		C169.159,98.881,181.457,84.725,179.543,66.738 M91.583,77.599c0,0-6.53,40.035-37.941,25.993
		c-18.905-8.476-20.851-41.42,8.622-70.332c43.785-42.671,152.198-32.25,147.888,35.583c-2.357,38.639-30.578,54.073-69.358,68.111
		v71.305c0,21.683-22.377,36.697-40.863,33.5c-19.737-3.479-20.294-26.97,3.334-51.849V47.436
		C85.053,54.939,73.105,78.018,91.583,77.599z"/>
	<path style="fill:none;stroke:#FFFFFF;stroke-width:2.2433;stroke-miterlimit:3.8636;" d="M179.543,66.738
		c-2.137-18.467-13.153-27.142-32.723-25.826l-5.051,0.343v62.752l6.416-1.202C169.159,98.881,181.457,84.725,179.543,66.738z
		 M91.583,77.599c0,0-6.53,40.035-37.941,25.993c-18.905-8.476-20.851-41.42,8.622-70.332
		c43.785-42.671,152.198-32.25,147.888,35.583c-2.357,38.639-30.578,54.073-69.358,68.111v71.305
		c0,21.683-22.377,36.697-40.863,33.5c-19.737-3.479-20.294-26.97,3.334-51.849V47.436C85.053,54.939,73.105,78.018,91.583,77.599z"
		/>
	<path style="fill:#FFFFFF;" d="M168.396,239.654h-2.251v-8.773h-0.054l-3.204,8.773h-2.167l-3.098-8.773h-0.053v8.773h-2.251
		V228.63h3.906l2.571,7.202h0.053l2.671-7.202h3.876 M153.298,230.591h-3.327v9.063h-2.25v-9.063h-3.334v-1.961h8.911V230.591z"/>
</g>
</svg>
