<?xml version="1.0" encoding="iso-8859-1"?>
<!-- Generator: Adobe Illustrator 14.0.0, SVG Export Plug-In . SVG Version: 6.00 Build 43363)  -->
<!DOCTYPE svg PUBLIC "-//W3C//DTD SVG 1.1//EN" "http://www.w3.org/Graphics/SVG/1.1/DTD/svg11.dtd">
<svg version="1.1" id="Layer_1" xmlns="http://www.w3.org/2000/svg" xmlns:xlink="http://www.w3.org/1999/xlink" x="0px" y="0px"
	 width="250px" height="250px" viewBox="0 0 250 250" style="enable-background:new 0 0 250 250;" xml:space="preserve">
<g>
	<rect y="0.021" style="fill:#003263;" width="250" height="249.996"/>
	<g>
		<path style="fill:#003263;" d="M60.898,152.743c21.416,1.739,22.636,14.435,30.396,27.878
			c6.752,11.688,16.006,22.629,29.038,22.629c14.435,0,16.166-14.466,16.166-19.852c0-8.408-4.257-15.183-10.688-21.226
			c-1.022-0.946-2.762-3.311-3.875-4.227c-4.349-3.586-9.384-6.942-14.633-10.284c-1.435-0.916-2.212-0.412-3.67-1.328
			c-20.82-13.106-43.365-27.942-43.365-68.142c0-48.02,35.744-70.358,60.402-70.358c17.959,0,30.953,10.735,30.953,10.735
			l24.498-8.873v81.329c-16.221,0-26.275-16.189-29.854-23.025c-2.021-3.86-6.965-22.362-21.049-22.362
			c-9.087,0-11.398,9.499-11.398,15.068c0,7.774,5.203,14.931,13.122,20.63c4.959,3.563,11.224,7.416,17.281,11.131
			c2.892,1.785,9.826,4.875,10.826,5.584c13.152,9.308,34.378,26.436,34.378,64.229c0,50.812-35.996,78.674-67.574,78.674
			c-14.809,0-32.936-8.85-32.936-8.85l-28.015,10.101V152.743z"/>
	</g>
	<g>
		<path style="fill:#006A65;" d="M143.479,92.017c-3.86-2.373-7.782-4.792-11.368-7.149l1.351,8.354
			c1.373,0.862,2.754,1.717,4.112,2.556L143.479,92.017z"/>
		<path style="fill:#006A65;" d="M98.808,143.268l2.647-5.783c-4.288-2.777-8.659-5.787-12.779-9.243l-11.085-1.815
			C83.908,133.196,91.354,138.461,98.808,143.268z"/>
		<path style="fill:#006A65;" d="M117.89,147.082c-0.237-0.168-0.473-0.32-0.702-0.488l-5.867,3.662
			c2.77,1.831,5.44,3.678,7.935,5.585L117.89,147.082z"/>
		<path style="fill:#006A65;" d="M174.614,126.502c5.852,10.144,8.507,22.183,8.507,35.778c0,27.496-10.964,44.54-20.157,54
			c-11.353,11.674-26.337,18.372-41.115,18.372c-16.777,0-32.051-10.01-32.051-10.01l-22.606,8.591v-70.572
			c7.561,1.313,11.139,6.684,14.282,13.138c1.267,2.595,2.739,5.158,4.364,7.98c10.017,17.334,21.293,25.772,34.493,25.772
			c16.586,0,22.469-14.084,22.469-26.153c0-8.637-3.548-16.495-10.796-23.941l-1.328,8.026c3.617,4.685,5.821,9.888,5.821,15.915
			c0,5.386-1.731,19.852-16.166,19.852c-13.031,0-22.286-10.94-29.038-22.629c-7.759-13.443-8.98-26.139-30.396-27.878v89.462
			l28.015-10.101c0,0,18.127,8.85,32.936,8.85c31.578,0,67.574-27.862,67.574-78.674c0-15.427-3.54-27.405-8.621-36.824
			L174.614,126.502z"/>
		<path style="fill:#006A65;" d="M155.045,98.052c-0.115-0.084-0.32-0.206-0.58-0.343l-2.51,5.875
			c4.799,3.411,10.276,7.484,15.221,12.848l8.85,1.442C169.296,108.611,161.271,102.454,155.045,98.052z"/>
		<path style="fill:#006A65;" d="M78.506,117.758c-8.026-10.467-11.948-23.422-11.948-39.566c0-25.055,11.963-41.359,20.638-49.721
			c9.857-9.506,21.69-14.335,33.47-14.335c17.411,0,30.319,12.047,30.319,12.047l18.83-7.5v64.163
			c-12.863-3.929-14.038-13.717-20.165-24.055c-6.744-11.391-12.245-19.455-24.437-19.455c-12.162,0-17.7,11.078-17.7,21.37
			c0,8.385,4.318,16.35,12.512,23.224l1.19-7.477c-4.608-4.7-7.4-10.056-7.4-15.747c0-5.57,2.312-15.068,11.398-15.068
			c14.084,0,19.027,18.501,21.049,22.362c1.915,3.655,5.685,9.987,11.254,15.091l4.379-2.792l-2.029,4.768
			c4.448,3.449,9.872,5.958,16.251,5.958V9.696l-24.498,8.873c0,0-12.993-10.735-30.953-10.735
			c-24.658,0-60.402,22.339-60.402,70.358c0,17.914,4.479,30.792,11.284,40.726L78.506,117.758z"/>
	</g>
	<g>
		<path style="fill:#C4CDD3;" d="M104.4,113.44L89.417,80.397l28.435,17.197l1.259-7.896c-9.354-6.958-16.007-15.389-16.007-28.938
			c0-16.174,9.911-26.542,20.95-26.542c25.78,0,29.251,31.372,40.879,40.794V25.397c-7.324,2.602-13.077,6.218-14.42,6.218
			c-2.357,0-12.871-13.107-29.648-13.107c-20.515,0-49.629,20.744-49.629,58.579c0,17.723,4.944,30.243,12.298,39.833L104.4,113.44z
			"/>
		<path style="fill:#C4CDD3;" d="M149.734,108.779l-1.915,4.486l9.873,1.618C155.151,112.677,152.474,110.671,149.734,108.779z"/>
		<path style="fill:#C4CDD3;" d="M96.176,129.47c2.189,1.717,4.44,3.33,6.729,4.871l1.61-3.506L96.176,129.47z"/>
		<path style="fill:#C4CDD3;" d="M147.613,131.064l0.046,0.907l14.374,31.94l-27.894-17.318l-1.221,7.37
			c8.438,6.958,14.29,15.351,14.29,28.076c0,18.905-10.551,32.44-25.047,32.44c-34.5,0-41.214-35.172-50.164-43.809l0.023,55.268
			c11.551-3.479,14.809-7.141,17.12-7.141c4.09,0,13.016,11.047,32.395,11.047c27.694,0,56.755-26.81,56.755-67.123
			c0-15.229-3.692-26.475-9.438-35.244L147.613,131.064z"/>
	</g>
	<polygon style="fill:#006A65;" points="93.658,85.173 106.888,114.47 106.728,130.538 93.658,159.045 120.438,142.352 
		129.883,141.711 157.761,159.045 145.79,132.422 144.852,115.417 157.761,85.173 133.507,100.607 120.743,101.554 	"/>
	<polygon style="fill:#C4CDD3;" points="93.658,85.173 114.609,109.74 106.728,130.538 93.658,159.045 115.86,134.783 
		129.883,141.711 157.761,159.045 132.561,129.119 144.852,115.417 157.761,85.173 134.766,111.006 120.743,101.554 	"/>
	<path style="fill:#006A65;" d="M156.342,122.176c0,16.88-13.68,30.552-30.556,30.552c-16.876,0-30.556-13.672-30.556-30.552
		c0-16.876,13.68-30.556,30.556-30.556C142.662,91.62,156.342,105.3,156.342,122.176z"/>
	<path style="fill:#FFFFFF;" d="M155.243,122.176c0,16.27-13.184,29.453-29.458,29.453c-16.266,0-29.457-13.184-29.457-29.453
		c0-16.266,13.191-29.457,29.457-29.457C142.06,92.719,155.243,105.91,155.243,122.176z"/>
	<g>
		<path style="fill:#EC174C;" d="M106.583,102.111c0.229-0.069,0.778-2.037,0.778-2.037c-0.038-0.107-0.305-0.351-0.427-0.465
			c-0.137,0.106-0.274,0.236-0.412,0.351l-0.389,1.412l-0.343-0.282c-0.046-0.008-0.32,0.061-0.656,0.152
			c-0.374,0.366-0.74,0.74-1.091,1.137c0.503-0.114,1.915-0.542,2.174-0.618C106.361,101.928,106.583,102.111,106.583,102.111"/>
		<path style="fill:#EC174C;" d="M108.643,103.476c0.198-0.083,0.763-2.144,0.763-2.144c-0.068-0.168-0.641-0.503-0.641-0.503
			l-0.168-0.084l-0.046,0.167l-0.503,1.87l-0.496-0.298c-0.122-0.015-2.464,0.694-2.464,0.694c-0.031,0.259,0.595,0.633,0.595,0.633
			c0.106,0.008,2.182-0.625,2.434-0.709C108.307,103.278,108.643,103.476,108.643,103.476"/>
		<path style="fill:#EC174C;" d="M108.101,105.292c0.114,0.008,2.212-0.771,2.38-0.832c0.213,0.153,0.572,0.328,0.572,0.328
			c0.213-0.099,0.564-2.182,0.564-2.182c-0.084-0.145-0.725-0.458-0.725-0.458l-0.175-0.077l-0.023,0.191l-0.32,1.869l-0.542-0.274
			c-0.122,0-2.396,0.847-2.396,0.847C107.422,104.964,108.101,105.292,108.101,105.292"/>
		<path style="fill:#EC174C;" d="M110.207,106.215L110.207,106.215c0.168,0.229,0.664,0.435,0.664,0.435
			c0.107,0,2.159-0.877,2.312-0.946c0.221,0.145,0.618,0.305,0.618,0.305c0.199-0.107,0.374-2.197,0.374-2.197
			c-0.091-0.145-0.755-0.412-0.755-0.412l-0.183-0.084l-0.015,0.191l-0.16,1.869l-0.58-0.229c-0.122,0-2.334,0.946-2.334,0.946
			C110.146,106.124,110.168,106.177,110.207,106.215"/>
		<path style="fill:#EC174C;" d="M112.968,107.36c0.008,0.045,0.039,0.076,0.077,0.129h0.007c0.199,0.198,0.763,0.351,0.763,0.351
			c0.099-0.015,1.968-1.106,2.09-1.175c0.259,0.114,0.717,0.236,0.717,0.236c0.183-0.16-0.054-2.235-0.054-2.235
			c-0.106-0.122-0.862-0.32-0.862-0.32l-0.199-0.061l0.016,0.213l0.213,1.862l-0.656-0.183
			C114.975,106.2,112.968,107.36,112.968,107.36"/>
		<path style="fill:#EC174C;" d="M135.032,107.23c0.023-0.16,0.046-0.282,0.054-0.351c0.268-0.03,0.74-0.16,0.74-0.16
			c0.008-0.03-0.023-0.076-0.054-0.13h0.008l-0.03-0.03c-0.176-0.244-0.626-0.656-1.03-1.007
			C134.834,106.139,134.934,106.704,135.032,107.23"/>
		<path style="fill:#EC174C;" d="M137.337,105.879c-0.1,0.122-0.374,1.892-0.374,1.892c0.19,0.153,0.931-0.129,0.931-0.129
			c0.076-0.099,0.328-1.595,0.366-1.847c0.244-0.076,0.596-0.198,0.596-0.198c0-0.03-0.023-0.076-0.062-0.137l0.016-0.008
			l-0.062-0.03c-0.396-0.435-1.899-1.412-1.899-1.412c-0.13-0.015-0.816,0.252-0.816,0.252l-0.26,0.099l2.061,1.335"/>
		<path style="fill:#EC174C;" d="M139.709,104.911c-0.076,0.13-0.015,1.884-0.015,1.884c0.206,0.115,0.87-0.229,0.87-0.229
			c0.061-0.115,0.022-1.511,0.015-1.816c0.236-0.084,0.564-0.244,0.564-0.244c0-0.031-0.03-0.061-0.091-0.122h0.022l-0.054-0.023
			c-0.419-0.412-1.999-1.313-1.999-1.313c-0.137-0.007-0.763,0.298-0.763,0.298l-0.244,0.122l2.129,1.221"/>
		<path style="fill:#EC174C;" d="M141.922,103.781c-0.076,0.145,0.122,1.87,0.122,1.87c0.222,0.114,0.839-0.252,0.839-0.252
			c0.062-0.122-0.091-1.526-0.121-1.808c0.229-0.099,0.503-0.267,0.503-0.267c0-0.038-0.03-0.076-0.084-0.122h0.008l-0.03-0.023
			c-0.428-0.374-2.075-1.198-2.075-1.198c-0.146,0-0.718,0.343-0.718,0.343l-0.221,0.137l2.174,1.091"/>
		<path style="fill:#EC174C;" d="M144.043,102.469c-0.046,0.16,0.572,1.808,0.572,1.808c0.229,0.053,0.725-0.374,0.725-0.374
			c0.03-0.129-0.435-1.411-0.549-1.724c0.19-0.122,0.442-0.343,0.442-0.343c-0.038-0.236-2.273-1.091-2.273-1.091
			c-0.146,0.023-0.596,0.412-0.596,0.412l-0.175,0.161l2.204,0.854 M144.699,104.086L144.699,104.086L144.699,104.086
			L144.699,104.086z"/>
		<path style="fill:#EC174C;" d="M146.454,102.751c0.229,0.061,0.732-0.366,0.732-0.366c0.015-0.061-0.054-0.29-0.153-0.58
			c-0.32-0.328-0.655-0.664-0.991-0.992l-0.16,0.145C145.844,101.104,146.454,102.751,146.454,102.751"/>
		<path style="fill:#EC174C;" d="M144.027,99.784l1.557,0.595c-0.366-0.328-0.732-0.648-1.113-0.961
			c-0.138,0.107-0.268,0.213-0.268,0.213"/>
		<path style="fill:#EC174C;" d="M145.218,142.291c-0.244,0.076-0.786,2.045-0.786,2.045c0.023,0.076,0.184,0.244,0.321,0.366
			c0.198-0.168,0.389-0.336,0.579-0.504l0.32-1.16l0.344,0.275c0.03,0.015,0.168-0.016,0.366-0.062
			c0.374-0.381,0.748-0.747,1.114-1.145c-0.626,0.168-1.679,0.474-1.908,0.55C145.424,142.474,145.218,142.291,145.218,142.291"/>
		<path style="fill:#EC174C;" d="M146.11,140.612c-0.114-0.016-2.174,0.61-2.434,0.687c-0.19-0.168-0.526-0.351-0.526-0.351
			c-0.214,0.092-0.763,2.136-0.763,2.136c0.061,0.153,0.648,0.488,0.648,0.488l0.152,0.092l0.55-2.029l0.503,0.29
			c0.106,0.015,2.457-0.702,2.457-0.702C146.729,140.979,146.11,140.612,146.11,140.612"/>
		<path style="fill:#EC174C;" d="M143.692,139.132c-0.115-0.015-2.259,0.764-2.389,0.824c-0.206-0.152-0.572-0.32-0.572-0.32
			c-0.206,0.092-0.549,2.167-0.549,2.167c0.076,0.152,0.702,0.458,0.702,0.458l0.183,0.076l0.336-2.061l0.549,0.275
			c0.122,0,2.396-0.824,2.396-0.824C144.363,139.468,143.692,139.132,143.692,139.132"/>
		<path style="fill:#EC174C;" d="M141.579,138.187h0.007H141.579c-0.168-0.214-0.656-0.412-0.656-0.412
			c-0.114,0-2.19,0.885-2.312,0.931c-0.229-0.152-0.626-0.306-0.626-0.306c-0.198,0.107-0.374,2.213-0.374,2.213
			c0.084,0.122,0.756,0.412,0.756,0.412l0.19,0.076l0.175-2.075l0.58,0.229c0.122,0,2.335-0.931,2.335-0.931
			C141.647,138.277,141.617,138.232,141.579,138.187"/>
		<path style="fill:#EC174C;" d="M138.824,137.057c0-0.045-0.03-0.091-0.076-0.137h0.008h-0.008
			c-0.198-0.198-0.763-0.352-0.763-0.352c-0.106,0.016-2.015,1.13-2.105,1.176c-0.244-0.107-0.718-0.229-0.718-0.229
			c-0.183,0.152,0.069,2.243,0.069,2.228c0.099,0.138,0.861,0.321,0.861,0.321l0.198,0.061l-0.244-2.075l0.672,0.184
			C136.825,138.217,138.824,137.057,138.824,137.057"/>
		<path style="fill:#EC174C;" d="M135.346,135.943h-0.016c-0.016-0.016-0.054-0.046-0.092-0.062
			c-0.015,0.122-0.038,0.229-0.061,0.352c0.152-0.107,0.244-0.184,0.244-0.184C135.414,136.02,135.376,135.989,135.346,135.943"/>
		<path style="fill:#EC174C;" d="M114.464,138.537c0.084-0.106,0.358-1.907,0.358-1.907c-0.183-0.138-0.923,0.152-0.923,0.152
			c-0.084,0.092-0.328,1.572-0.359,1.831c-0.251,0.076-0.603,0.198-0.603,0.198c-0.008,0.046,0.099,0.168,0.099,0.168
			c0.412,0.442,1.907,1.435,1.907,1.435c0.122,0,0.816-0.26,0.816-0.26l0.252-0.106l-2.037-1.327"/>
		<path style="fill:#EC174C;" d="M112.083,139.498c0.069-0.122,0.015-1.876,0.015-1.876c-0.221-0.122-0.862,0.229-0.862,0.229
			c-0.076,0.106-0.045,1.525-0.03,1.815c-0.236,0.076-0.549,0.229-0.549,0.229c0,0.03,0.114,0.152,0.114,0.152
			c0.427,0.412,1.992,1.327,1.992,1.327c0.137,0,0.771-0.305,0.771-0.305l0.236-0.122l-2.128-1.221"/>
		<path style="fill:#EC174C;" d="M109.871,140.612c0.068-0.122-0.13-1.861-0.13-1.861c-0.214-0.107-0.832,0.274-0.832,0.274
			c-0.069,0.106,0.084,1.511,0.114,1.785c-0.213,0.122-0.503,0.29-0.503,0.29c0.008,0.016,0.038,0.046,0.084,0.106h-0.008
			l0.023,0.016c0.412,0.366,2.083,1.205,2.083,1.205c0.145,0,0.717-0.351,0.717-0.351l0.221-0.122l-2.174-1.099"/>
		<path style="fill:#EC174C;" d="M107.758,141.939c0.03-0.152-0.588-1.815-0.588-1.815c-0.221-0.046-0.717,0.382-0.717,0.382
			c-0.038,0.122,0.435,1.419,0.549,1.724c-0.191,0.122-0.443,0.352-0.443,0.352c0.038,0.229,2.274,1.083,2.274,1.083
			c0.145-0.03,0.603-0.427,0.603-0.427l0.168-0.138l-2.212-0.854"/>
		<path style="fill:#EC174C;" d="M105.332,141.665c-0.229-0.061-0.725,0.366-0.725,0.366c-0.015,0.062,0.092,0.412,0.222,0.778
			c0.282,0.29,0.572,0.58,0.862,0.854l0.221-0.198C105.949,143.313,105.332,141.665,105.332,141.665"/>
		<path style="fill:#EC174C;" d="M107.773,144.625l-1.786-0.687c0.42,0.382,0.847,0.748,1.282,1.099
			c0.152-0.122,0.32-0.259,0.32-0.259"/>
		<path style="fill:#EC174C;" d="M116.669,137.53c-0.26,0.046-0.702,0.168-0.702,0.168c0,0.03,0.015,0.076,0.061,0.122l-0.015,0.015
			l0.03,0.016c0.145,0.214,0.496,0.534,0.839,0.839C116.806,138.293,116.729,137.911,116.669,137.53"/>
	</g>
	<polygon style="fill:#006A65;" points="125.946,58.707 117.279,113.211 63.416,122.184 117.279,131.011 125.786,185.352 
		134.766,131.323 189.735,122.031 134.766,113.051 	"/>
	<polygon style="fill:#C4CDD3;" points="125.946,58.707 125.786,122.176 117.279,113.211 63.416,122.184 125.786,122.176 
		117.279,131.011 125.786,185.352 125.786,122.176 134.766,131.323 189.735,122.031 125.786,122.176 134.766,113.051 	"/>
</g>
</svg>
