<?xml version="1.0" encoding="iso-8859-1"?>
<!-- Generator: Adobe Illustrator 14.0.0, SVG Export Plug-In . SVG Version: 6.00 Build 43363)  -->
<!DOCTYPE svg PUBLIC "-//W3C//DTD SVG 1.1//EN" "http://www.w3.org/Graphics/SVG/1.1/DTD/svg11.dtd">
<svg version="1.1" id="Layer_1" xmlns="http://www.w3.org/2000/svg" xmlns:xlink="http://www.w3.org/1999/xlink" x="0px" y="0px"
	 width="250px" height="250px" viewBox="0 0 250 250" style="enable-background:new 0 0 250 250;" xml:space="preserve">
<g>
	<rect y="0.02" style="fill:#004685;" width="250" height="250.003"/>
	<g>
		<path style="fill:#CE1141;" d="M93.208,42.21c0-2.105,0-3.689,0-4.345c-0.084,0-0.42,0-0.42,0
			c-31.303,0-44.075,10.864-44.113,37.792l-0.039,6.134H22.461l14.114,13.229h24.658l0.031-4.94
			C61.264,62.508,63.965,45.125,93.208,42.21z"/>
		<path style="fill:#CE1141;" d="M163.535,107.053l-6.919,1.953c-0.152,0.042-15.198,4.395-15.198,14.622v60.257
			c0,4.09,1.694,6.82,9.873,6.82h4.257c0.016-0.381,0.03-0.777,0.016-1.189c0,0,0-47.943,0-60.246c0-12.318,17.06-17.04,17.06-17.04
			S167.984,110.39,163.535,107.053z"/>
		<path style="fill:#CE1141;" d="M141.418,38.022c0,4.807,0,50.583,0,50.583c0,9.51,15.281,15.59,15.435,15.651l6.272,2.453
			c-3.915-3.037-7.562-7.21-7.562-12.455c0-11.346,0-51.202,0-51.202l2.418,0.153c9.393,0.801,16.167,3.289,20.989,6.936
			C171.165,42.333,158.592,38.063,141.418,38.022z"/>
		<polygon style="fill:#CE1141;" points="214.081,7.833 214.081,81.792 193.1,81.792 207.962,95.864 227.539,95.864 227.539,20.406 
					"/>
		<polygon style="fill:#CE1141;" points="166.732,227.57 72.922,227.57 88.409,242.211 178.65,242.211 178.65,206.818 
			166.732,195.71 		"/>
	</g>
	<path style="fill:#FFFFFF;" d="M43.701,75.356c0-29.396,15.152-42.502,49.087-42.502h5.432v55.751c0,9.563-6.927,15-11.894,17.853
		c5.005,2.563,11.894,7.614,11.894,17.17v59.708c0,7.751-5.34,12.374-14.282,12.374c0,0-7.675,0-11.017,0c0,3.906,0,22.965,0,26.855
		c4.623,0,84.167,0,88.782,0c0-3.891,0-22.949,0-26.855c-3.249,0-10.413,0-10.413,0c-9.873,0-14.877-3.967-14.877-11.825v-60.257
		c0-9.46,8.041-14.657,13.626-17.273c-5.524-3.086-13.626-8.946-13.626-17.75V32.716l2.64,0.145c0,0,2.387,0.13,2.251,0.13
		c32.92,0,51.811,14.881,51.811,40.836c0,0-0.016,1.488-0.03,2.96c3.388,0,12.634,0,15.982,0c0-4.517,0-64.438,0-68.955
		c-4.828,0-181.785,0-186.606,0c0,4.517,0,64.438,0,68.955c3.708,0,18.013,0,21.408,0"/>
	<path style="fill:#FFFFFF;" d="M196.907,232.857h-3.38v9.247h-2.305v-9.247h-3.387v-2.006h9.071V232.857 M212.288,242.104h-2.297
		v-8.957h-0.053l-3.251,8.957h-2.22l-3.158-8.957h-0.046v8.957h-2.289v-11.253h3.967l2.625,7.347h0.053l2.725-7.347h3.944V242.104z"
		/>
</g>
</svg>
